<svg width="27" height="30" viewBox="0 0 27 30" fill="none" xmlns="http://www.w3.org/2000/svg">
<g clip-path="url(#clip0_180_1425)">
<path d="M22.556 2.33513C21.1408 0.757445 18.5827 0.0810547 15.31 0.0810547H5.81189C5.4881 0.0810664 5.17492 0.194055 4.92868 0.399707C4.68243 0.60536 4.51927 0.890185 4.46852 1.20298L0.513681 25.7361C0.435071 26.2199 0.818064 26.658 1.31938 26.658H7.18319L8.65585 17.5218L8.61014 17.8079C8.71506 17.1621 9.27974 16.6858 9.94843 16.6858H12.7349C18.2089 16.6858 22.4952 14.5111 23.7472 8.22009C23.7844 8.03403 23.8166 7.85294 23.8444 7.67602C23.6864 7.59417 23.6864 7.59417 23.8444 7.67602C24.2173 5.35082 23.8419 3.76807 22.556 2.33513Z" fill="#27346A"/>
<path d="M10.8996 6.83841C11.0599 6.76375 11.2352 6.72505 11.4128 6.72516H18.8591C19.7409 6.72516 20.5633 6.78129 21.3149 6.8996C21.5252 6.9324 21.7344 6.97155 21.9423 7.01701C22.2368 7.08059 22.528 7.1584 22.8147 7.25016C23.1842 7.37086 23.5282 7.51142 23.8445 7.67602C24.2172 5.34993 23.8419 3.76807 22.556 2.33513C21.14 0.757445 18.5827 0.0810547 15.31 0.0810547H5.81108C5.14229 0.0810547 4.57334 0.55728 4.46852 1.20298L0.513681 25.7352C0.435072 26.2198 0.818064 26.6573 1.31856 26.6573H7.18319L10.2385 7.70662C10.2685 7.52035 10.3444 7.34401 10.4596 7.19277C10.5747 7.04153 10.7257 6.91992 10.8996 6.83841Z" fill="#27346A"/>
<path d="M23.7475 8.21985C22.4954 14.5099 18.2093 16.6855 12.7352 16.6855H9.9479C9.27921 16.6855 8.71442 17.1618 8.61053 17.8076L6.77844 29.1674C6.70999 29.5908 7.04474 29.9744 7.48267 29.9744H12.4257C12.7089 29.9743 12.9827 29.8755 13.198 29.6956C13.4133 29.5156 13.5558 29.2665 13.6001 28.993L13.6482 28.7466L14.5799 22.9715L14.6399 22.6523C14.6841 22.3788 14.8267 22.1297 15.042 21.9498C15.2572 21.7699 15.531 21.671 15.8142 21.6709H16.5539C21.3423 21.6709 25.0917 19.7682 26.1873 14.2653C26.6447 11.9656 26.408 10.0456 25.1982 8.69697C24.8313 8.2885 24.3756 7.95115 23.8447 7.67578C23.816 7.8536 23.7848 8.03379 23.7475 8.21985Z" fill="white"/>
<path d="M22.5344 7.16458C22.3392 7.10882 22.1421 7.05946 21.9435 7.01657C21.7356 6.97185 21.5264 6.93296 21.3162 6.89994C20.5638 6.78084 19.742 6.72461 18.8594 6.72461H11.4139C11.2363 6.72422 11.0608 6.76324 10.9007 6.83875C10.7267 6.92002 10.5755 7.04155 10.4603 7.19283C10.3451 7.34412 10.2693 7.52059 10.2396 7.70696L8.65703 17.5213L8.61133 17.8074C8.71543 17.1616 9.28012 16.6853 9.94891 16.6853H12.7362C18.2102 16.6853 22.4963 14.5106 23.7484 8.21965C23.7857 8.03359 23.817 7.85329 23.8457 7.67557C23.5286 7.51186 23.1854 7.37041 22.8159 7.25051C22.7226 7.22027 22.6288 7.19162 22.5345 7.16458" fill="#1F264F"/>
</g>
<defs>
<clipPath id="clip0_180_1425">
<rect width="26" height="30" fill="white" transform="translate(0.5)"/>
</clipPath>
</defs>
</svg>
