<svg width="12" height="12" viewBox="0 0 12 12" fill="none" xmlns="http://www.w3.org/2000/svg">
<path d="M4.5 0C5.46635 5.58319e-05 6.39537 0.373156 7.09333 1.04149C7.7913 1.70983 8.20431 2.62181 8.24625 3.58725L8.25 3.75V8.25C8.24979 8.44116 8.17659 8.62502 8.04536 8.76403C7.91414 8.90303 7.73479 8.98668 7.54395 8.99788C7.35312 9.00908 7.16522 8.94699 7.01863 8.8243C6.87204 8.70161 6.77783 8.52757 6.75525 8.33775L6.75 8.25V3.75C6.75003 3.17609 6.53076 2.62386 6.13704 2.2063C5.74332 1.78874 5.20492 1.53742 4.632 1.50375L4.5 1.5H2.25V11.25C2.24979 11.4412 2.17659 11.625 2.04536 11.764C1.91414 11.903 1.73479 11.9867 1.54395 11.9979C1.35312 12.0091 1.16522 11.947 1.01863 11.8243C0.872036 11.7016 0.777828 11.5276 0.75525 11.3377L0.75 11.25V0.75C0.750024 0.5663 0.817467 0.388997 0.939536 0.251721C1.06161 0.114445 1.22981 0.0267429 1.41225 0.00524998L1.5 0H4.5ZM10.5 0C10.6837 2.42329e-05 10.861 0.067467 10.9983 0.189536C11.1356 0.311606 11.2233 0.479812 11.2448 0.66225L11.25 0.75V11.25C11.25 11.4337 11.1825 11.611 11.0605 11.7483C10.9384 11.8856 10.7702 11.9733 10.5878 11.9947L10.5 12H7.5C6.53365 11.9999 5.60463 11.6268 4.90667 10.9585C4.20871 10.2902 3.79569 9.37819 3.75375 8.41275L3.75 8.25V3.75C3.75021 3.55884 3.82341 3.37498 3.95464 3.23597C4.08586 3.09697 4.26522 3.01332 4.45605 3.00212C4.64688 2.99092 4.83478 3.05301 4.98137 3.1757C5.12796 3.29839 5.22217 3.47243 5.24475 3.66225L5.25 3.75V8.25C5.24997 8.82391 5.46924 9.37613 5.86296 9.79369C6.25668 10.2113 6.79508 10.4626 7.368 10.4963L7.5 10.5H9.75V0.75C9.75 0.551088 9.82902 0.360322 9.96967 0.21967C10.1103 0.0790178 10.3011 0 10.5 0Z" fill="#141C24"/>
</svg>
