<svg width="22" height="22" viewBox="0 0 22 22" fill="none" xmlns="http://www.w3.org/2000/svg">
<g clip-path="url(#clip0_726_246)">
<path d="M9.16671 3.66699C10.3478 3.66706 11.4833 4.12307 12.3363 4.93993C13.1894 5.75679 13.6942 6.87143 13.7455 8.05141L13.75 8.25033V13.7503C13.7498 13.984 13.6603 14.2087 13.4999 14.3786C13.3395 14.5485 13.1203 14.6507 12.8871 14.6644C12.6539 14.6781 12.4242 14.6022 12.245 14.4522C12.0659 14.3023 11.9507 14.0896 11.9231 13.8576L11.9167 13.7503V8.25033C11.9167 7.54888 11.6487 6.87394 11.1675 6.36359C10.6863 5.85324 10.0283 5.54606 9.32804 5.50491L9.16671 5.50033H6.41671V17.417C6.41645 17.6506 6.32699 17.8754 6.1666 18.0452C6.00621 18.2151 5.787 18.3174 5.55376 18.3311C5.32052 18.3448 5.09086 18.2689 4.91169 18.1189C4.73253 17.969 4.61739 17.7562 4.58979 17.5242L4.58337 17.417V4.58366C4.5834 4.35914 4.66583 4.14243 4.81503 3.97465C4.96423 3.80687 5.16981 3.69968 5.39279 3.67341L5.50004 3.66699H9.16671ZM16.5 3.66699C16.7246 3.66702 16.9413 3.74945 17.109 3.89865C17.2768 4.04784 17.384 4.25343 17.4103 4.47641L17.4167 4.58366V17.417C17.4167 17.6415 17.3342 17.8582 17.1851 18.026C17.0359 18.1938 16.8303 18.301 16.6073 18.3272L16.5 18.3337H12.8334C11.6523 18.3336 10.5168 17.8776 9.66375 17.0607C8.81068 16.2439 8.30588 15.1292 8.25462 13.9492L8.25004 13.7503V8.25033C8.2503 8.01669 8.33976 7.79196 8.50015 7.62207C8.66054 7.45218 8.87975 7.34994 9.11299 7.33625C9.34622 7.32256 9.57589 7.39844 9.75505 7.5484C9.93422 7.69836 10.0494 7.91107 10.077 8.14308L10.0834 8.25033V13.7503C10.0833 14.4518 10.3513 15.1267 10.8326 15.6371C11.3138 16.1474 11.9718 16.4546 12.672 16.4957L12.8334 16.5003H15.5834V4.58366C15.5834 4.34054 15.68 4.10739 15.8519 3.93548C16.0238 3.76357 16.2569 3.66699 16.5 3.66699Z" fill="#2182AC"/>
</g>
<defs>
<clipPath id="clip0_726_246">
<rect width="22" height="22" fill="white"/>
</clipPath>
</defs>
</svg>
