<svg width="30" height="15" viewBox="0 0 30 15" fill="none" xmlns="http://www.w3.org/2000/svg">
<path d="M12 7.33301L1 7.33301" stroke="#FF5B40" stroke-width="2" stroke-linecap="round"/>
<path d="M21.1668 0C22.3479 6.82389e-05 23.4834 0.45608 24.3365 1.27294C25.1895 2.0898 25.6943 3.20444 25.7456 4.38442L25.7502 4.58333V10.0833C25.7499 10.317 25.6604 10.5417 25.5001 10.7116C25.3397 10.8815 25.1205 10.9837 24.8872 10.9974C24.654 11.0111 24.4243 10.9352 24.2451 10.7853C24.066 10.6353 23.9508 10.4226 23.9232 10.1906L23.9168 10.0833V4.58333C23.9169 3.88189 23.6489 3.20694 23.1677 2.69659C22.6864 2.18624 22.0284 1.87907 21.3282 1.83792L21.1668 1.83333H18.4168V13.75C18.4166 13.9836 18.3271 14.2084 18.1667 14.3783C18.0063 14.5481 17.7871 14.6504 17.5539 14.6641C17.3206 14.6778 17.091 14.6019 16.9118 14.4519C16.7327 14.302 16.6175 14.0893 16.5899 13.8572L16.5835 13.75V0.916667C16.5835 0.692144 16.666 0.475441 16.8152 0.307659C16.9643 0.139877 17.1699 0.0326857 17.3929 0.00641664L17.5002 0H21.1668ZM28.5002 0C28.7247 2.9618e-05 28.9414 0.0824596 29.1092 0.231656C29.277 0.380851 29.3841 0.586436 29.4104 0.809417L29.4168 0.916667V13.75C29.4168 13.9745 29.3344 14.1912 29.1852 14.359C29.036 14.5268 28.8304 14.634 28.6074 14.6602L28.5002 14.6667H24.8335C23.6524 14.6666 22.5169 14.2106 21.6639 13.3937C20.8108 12.5769 20.306 11.4622 20.2547 10.2822L20.2502 10.0833V4.58333C20.2504 4.34969 20.3399 4.12497 20.5003 3.95508C20.6607 3.78519 20.8799 3.68295 21.1131 3.66926C21.3463 3.65557 21.576 3.73145 21.7552 3.88141C21.9343 4.03137 22.0495 4.24408 22.0771 4.47608L22.0835 4.58333V10.0833C22.0835 10.7848 22.3515 11.4597 22.8327 11.9701C23.3139 12.4804 23.9719 12.7876 24.6722 12.8288L24.8335 12.8333H27.5835V0.916667C27.5835 0.673552 27.6801 0.440394 27.852 0.268486C28.0239 0.0965773 28.257 0 28.5002 0Z" fill="#FF5B40"/>
</svg>
