<svg width="92" height="50" viewBox="0 0 92 50" fill="none" xmlns="http://www.w3.org/2000/svg">
<path d="M66.7202 12.7124C66.8742 13.2874 66.5332 13.8782 65.9585 14.0334C65.3832 14.1873 64.7925 13.8466 64.6374 13.2716C64.4834 12.6966 64.8244 12.1058 65.3991 11.9505C65.9744 11.7953 66.5651 12.1374 66.7202 12.7124ZM59.0914 13.6396C58.5164 13.7934 58.1743 14.3856 58.3295 14.9606C58.4834 15.5356 59.0756 15.8778 59.6506 15.7225C60.2256 15.5687 60.5677 14.9764 60.4125 14.4014C60.2572 13.8264 59.6664 13.4858 59.0914 13.6396ZM52.7837 15.3301C52.2087 15.4839 51.8665 16.0762 52.0218 16.6512C52.1756 17.2262 52.7678 17.5683 53.3428 17.413C53.9178 17.2592 54.2599 16.6684 54.1047 16.092C53.9495 15.517 53.3587 15.1763 52.7837 15.3301ZM46.4759 17.0206C45.9009 17.1744 45.5588 17.7666 45.714 18.3416C45.8678 18.9166 46.4587 19.2588 47.0351 19.1035C47.6101 18.9497 47.9522 18.3589 47.7969 17.7824C47.6417 17.2074 47.0509 16.8653 46.4759 17.0206ZM40.1681 18.7096C39.5931 18.8634 39.251 19.4557 39.4062 20.0307C39.5601 20.6057 40.1509 20.9479 40.7274 20.7926C41.3024 20.6388 41.6445 20.048 41.4892 19.4715C41.3339 18.898 40.7431 18.5559 40.1681 18.7096ZM90.1962 18.4264C88.6077 20.1098 86.112 21.4452 82.9766 22.2847L60.7618 28.236L54.5891 38.5371C52.5048 42.0171 49.2776 44.7544 45.5027 46.2436L37.1264 49.547C36.8878 49.6402 36.6419 49.685 36.4005 49.685C35.847 49.685 35.3166 49.4476 34.9342 49.0036C34.3865 48.3669 34.3031 47.4856 34.7215 46.7551L42.7485 32.8532C37.1321 34.0507 32.2619 34.686 28.1219 34.686C24.0107 34.686 20.598 34.065 17.7101 32.8863L15.6775 36.4081C14.8337 37.8701 13.4724 38.9123 11.8465 39.3479L9.37547 40.0091C9.20724 40.0551 9.03618 40.0781 8.868 40.0781C8.32606 40.0781 7.80424 39.8524 7.42765 39.437C6.936 38.8964 6.78653 38.1332 7.04242 37.4474L10.6462 27.7501C10.5916 27.684 10.5341 27.6222 10.4809 27.556C5.08451 20.8903 1.41027 16.217 0.41408 14.9434C0.0115796 14.4316 -0.106295 13.7574 0.0992673 13.1408C0.30483 12.5226 0.80508 12.054 1.43758 11.8859L7.67918 10.2126C8.90542 9.88198 10.2049 10.2025 11.1436 11.0693L19.5098 18.8132L38.1384 13.8207L23.6585 5.46021C22.9297 5.04045 22.5602 4.23545 22.7169 3.40892C22.8736 2.58233 23.5132 1.96709 24.3441 1.84345L33.2509 0.51521C37.2601 -0.0856723 41.4259 0.673328 44.9751 2.64415L50.7266 5.84115C51.2484 6.13009 51.4353 6.78703 51.1464 7.30739C50.8574 7.8278 50.199 8.01462 49.6815 7.72574L43.9287 4.52874C40.7949 2.78645 37.1178 2.12092 33.57 2.64703L25.2498 3.88756L41.0852 13.0301L70.5413 5.1368C76.2968 3.5958 80.4466 6.07256 82.9239 7.55462C83.3667 7.81915 83.7501 8.05203 84.0782 8.21304C87.3123 8.68021 91.08 10.4914 91.8681 13.434C92.2932 15.0282 91.6841 16.8481 90.1962 18.4264ZM44.1989 30.3419L46.2689 26.7568L25.1779 32.4076C30.1574 32.8244 36.3976 32.1359 44.1989 30.3419ZM89.7834 13.9946C89.2676 12.0684 86.2255 10.6697 83.6268 10.329C83.5219 10.3161 83.4182 10.2873 83.3219 10.2428C83.0183 10.1062 82.6522 9.8978 82.2554 9.66492L75.2143 11.5509C74.6592 11.699 74.0514 11.3784 73.8932 10.789C73.7392 10.2154 74.1005 9.61745 74.6549 9.46798L79.5469 8.15698C77.3837 7.10615 74.5948 6.28392 71.0976 7.22115L19.4926 21.0499C19.1332 21.1462 18.7522 21.0528 18.4806 20.7998L9.68018 12.652C9.28918 12.2912 8.75012 12.1561 8.23842 12.2955L2.32164 13.8811C3.55789 15.4566 7.09848 19.9502 12.1585 26.199C12.3295 26.4103 12.5035 26.6173 12.6831 26.8172C12.9562 27.1233 13.0066 27.5388 12.8772 27.8982C12.8815 27.9024 12.8844 27.9024 12.8887 27.9068L9.20442 37.8198L11.2902 37.262C12.3611 36.976 13.2552 36.2874 13.8116 35.3257L18.7278 26.8114L15.8269 27.5891C15.2562 27.7372 14.6611 27.4008 14.5059 26.8272C14.3521 26.2522 14.6928 25.6614 15.2678 25.5061L18.6488 24.5991C19.4135 24.3979 20.2185 24.6681 20.7001 25.2963C21.1817 25.923 21.2377 26.7726 20.8424 27.4569L18.7997 30.9945C19.2597 31.1728 19.7111 31.3596 20.2041 31.5063L47.7941 24.1118L48.5071 22.877C48.8061 22.3609 49.4601 22.1826 49.9791 22.4816C50.4951 22.7792 50.6719 23.439 50.3744 23.9536L36.8864 47.323L44.7135 44.2367C48.0485 42.923 50.8977 40.5064 52.7405 37.4302L63.9443 18.7341C64.2491 18.2238 64.9134 18.057 65.4237 18.3632C65.7512 18.5602 65.9168 18.9037 65.9266 19.2602L85.5502 14.0019C86.1322 13.8509 86.7174 14.1916 86.8695 14.7637C87.0234 15.3387 86.6842 15.9295 86.1077 16.0848L64.5901 21.8506L62.3545 25.5809L82.4179 20.2046C85.8906 19.2746 87.7103 17.9219 88.6261 16.9502C89.5767 15.941 90.0091 14.837 89.7834 13.9946ZM33.8604 20.4002C33.2854 20.554 32.9432 21.1462 33.0985 21.7212C33.2524 22.2962 33.8431 22.6383 34.4196 22.4831C34.9946 22.3293 35.3367 21.737 35.1815 21.162C35.0262 20.587 34.4354 20.2463 33.8604 20.4002Z" fill="#0070F0"/>
</svg>
