<svg width="19" height="24" viewBox="0 0 19 24" fill="none" xmlns="http://www.w3.org/2000/svg">
<path fill-rule="evenodd" clip-rule="evenodd" d="M5.44636 5.35904C5.79451 3.00488 7.4363 1.39806 9.17973 1.39806C10.9232 1.39806 12.5649 3.00488 12.9131 5.35904H5.44636ZM4.03847 5.35904C4.40317 2.43129 6.45866 0 9.17973 0C11.9008 0 13.9563 2.43129 14.321 5.35904H16.7816H18.1797V6.7571V21.2037C18.1797 22.7479 16.9278 23.9998 15.3836 23.9998H2.9758C1.43155 23.9998 0.179688 22.7479 0.179688 21.2037V6.7571V5.35904H1.57775H4.03847ZM1.57775 6.7571H4.02596V9.08734C4.02596 9.47341 4.33893 9.78637 4.72499 9.78637C5.11105 9.78637 5.42402 9.47341 5.42402 9.08734V6.7571H13.0259V9.08734C13.0259 9.47341 13.3389 9.78637 13.7249 9.78637C14.111 9.78637 14.4239 9.47341 14.4239 9.08734V6.7571H16.7816V21.2037C16.7816 21.9758 16.1557 22.6017 15.3836 22.6017H2.9758C2.20368 22.6017 1.57775 21.9758 1.57775 21.2037V6.7571Z" fill="white"/>
</svg>
