<svg width="181" height="184" viewBox="0 0 181 184" fill="none" xmlns="http://www.w3.org/2000/svg">
<path fill-rule="evenodd" clip-rule="evenodd" d="M90.5 48.9999C105.688 48.9999 118 36.6877 118 21.4999C118 15.6842 116.195 10.2902 113.114 5.84766C152.153 15.8903 181 51.326 181 93.4993C181 143.481 140.482 183.999 90.5 183.999C40.5182 183.999 0 143.481 0 93.4993C0 51.326 28.8471 15.8903 67.886 5.84766C64.8053 10.2902 63 15.6842 63 21.4999C63 36.6877 75.3122 48.9999 90.5 48.9999Z" fill="white" fill-opacity="0.1"/>
<circle cx="90.5" cy="21.5" r="21.5" fill="white"/>
<path d="M84.2643 29.23C83.1603 29.23 82.202 29.0767 81.3893 28.77C80.5766 28.448 79.902 28.011 79.3653 27.459C78.844 26.907 78.4453 26.263 78.1693 25.527C77.8933 24.791 77.7323 24.0013 77.6863 23.158C77.671 22.744 77.6556 22.2763 77.6403 21.755C77.6403 21.2183 77.6403 20.6817 77.6403 20.145C77.6556 19.593 77.671 19.1023 77.6863 18.673C77.7323 17.8297 77.8933 17.0477 78.1693 16.327C78.4606 15.591 78.8746 14.9547 79.4113 14.418C79.9633 13.866 80.638 13.4367 81.4353 13.13C82.248 12.8233 83.191 12.67 84.2643 12.67C85.353 12.67 86.296 12.8233 87.0933 13.13C87.8906 13.4367 88.5576 13.866 89.0943 14.418C89.6463 14.9547 90.068 15.591 90.3593 16.327C90.6506 17.0477 90.8116 17.8297 90.8423 18.673C90.873 19.1023 90.8883 19.593 90.8883 20.145C90.9036 20.6817 90.9036 21.2183 90.8883 21.755C90.8883 22.2763 90.873 22.744 90.8423 23.158C90.8116 24.0013 90.6506 24.791 90.3593 25.527C90.0833 26.263 89.677 26.907 89.1403 27.459C88.619 28.011 87.952 28.448 87.1393 28.77C86.342 29.0767 85.3836 29.23 84.2643 29.23ZM84.2643 25.895C85.0616 25.895 85.6366 25.642 85.9893 25.136C86.3573 24.6147 86.549 23.917 86.5643 23.043C86.595 22.5983 86.6103 22.1307 86.6103 21.64C86.6256 21.1493 86.6256 20.6587 86.6103 20.168C86.6103 19.6773 86.595 19.225 86.5643 18.811C86.549 17.9677 86.3573 17.2853 85.9893 16.764C85.6366 16.2427 85.0616 15.9743 84.2643 15.959C83.467 15.9743 82.892 16.2427 82.5393 16.764C82.1866 17.2853 81.995 17.9677 81.9643 18.811C81.949 19.225 81.9336 19.6773 81.9183 20.168C81.9183 20.6587 81.9183 21.1493 81.9183 21.64C81.9336 22.1307 81.949 22.5983 81.9643 23.043C81.995 23.917 82.1943 24.6147 82.5623 25.136C82.9303 25.642 83.4976 25.895 84.2643 25.895ZM98.4711 29C98.3178 29 98.1798 28.9463 98.0571 28.839C97.9498 28.7317 97.8961 28.5937 97.8961 28.425V17.477L94.7451 19.892C94.6071 19.9993 94.4614 20.0377 94.3081 20.007C94.1701 19.9763 94.0474 19.892 93.9401 19.754L92.5831 17.983C92.4911 17.845 92.4528 17.6993 92.4681 17.546C92.4988 17.3773 92.5908 17.247 92.7441 17.155L98.0341 13.061C98.1261 12.9997 98.2104 12.9613 98.2871 12.946C98.3791 12.9153 98.4788 12.9 98.5861 12.9H101.461C101.614 12.9 101.745 12.9537 101.852 13.061C101.975 13.1683 102.036 13.3063 102.036 13.475V28.425C102.036 28.5937 101.975 28.7317 101.852 28.839C101.745 28.9463 101.614 29 101.461 29H98.4711Z" fill="black"/>
<path opacity="0.5" d="M52.1869 72.0535H58.3409C58.8072 74.1979 60.6719 75.7828 62.8162 75.7828H74.4713C76.9889 75.7828 79.1333 73.6384 79.1333 71.1208C79.1333 68.5101 77.082 66.4588 74.4713 66.4588H67.4783C67.0119 64.3144 65.1473 62.7295 63.0029 62.7295H52.1869C49.6692 62.7295 47.5248 64.8739 47.5248 67.3915C47.5248 69.9092 49.5761 72.0535 52.1869 72.0535ZM50.8815 65.9932C51.1612 65.6206 51.6275 65.4339 52.1869 65.4339H63.096C64.1216 65.4339 64.8677 66.2729 64.8677 67.2985C64.8677 67.7649 65.0544 68.2312 65.427 68.6039C65.7067 68.9765 66.173 69.1632 66.7324 69.1632H74.6581C75.6838 69.1632 76.4299 70.0022 76.4299 71.0278C76.4299 72.0535 75.5908 72.8925 74.6581 72.8925H62.8164C61.7908 72.8925 61.0447 72.0535 61.0447 71.0278C61.0447 70.0022 60.2057 69.1632 59.273 69.1632H52.1869C51.1612 69.1632 50.4152 68.3242 50.4152 67.2986C50.4152 66.8322 50.6019 66.3659 50.8815 65.9932Z" fill="white"/>
<path opacity="0.5" d="M82.1169 95.5503C82.863 95.5503 83.5153 94.991 83.5153 94.152V88.744C83.5153 87.998 82.8623 87.3457 82.1169 87.3457C81.3709 87.3457 80.7186 87.905 80.7186 88.744V94.152C80.625 94.8973 81.278 95.5503 82.1169 95.5503Z" fill="white"/>
<path opacity="0.5" d="M82.1169 109.07C82.863 109.07 83.5153 108.511 83.5153 107.672V102.264C83.5153 101.518 82.8623 100.865 82.1169 100.865C81.3709 100.865 80.7186 101.425 80.7186 102.264V107.672C80.625 108.511 81.278 109.07 82.1169 109.07Z" fill="white"/>
<path opacity="0.5" d="M82.1169 122.59C82.863 122.59 83.5153 122.031 83.5153 121.192V115.784C83.5153 115.038 82.8623 114.386 82.1169 114.386C81.3709 114.386 80.7186 114.945 80.7186 115.784V121.192C80.625 122.031 81.278 122.59 82.1169 122.59Z" fill="white"/>
<path opacity="0.5" d="M82.1169 136.203C82.863 136.203 83.5153 135.643 83.5153 134.804V129.396C83.5153 128.65 82.8623 127.998 82.1169 127.998C81.3709 127.998 80.7186 128.557 80.7186 129.396V134.804C80.625 135.55 81.278 136.203 82.1169 136.203Z" fill="white"/>
<path opacity="0.5" d="M95.6368 109.07C96.3828 109.07 97.0351 108.511 97.0351 107.672V102.264C97.0351 101.518 96.3821 100.865 95.6368 100.865C94.8908 100.865 94.2384 101.425 94.2384 102.264V107.672C94.1448 108.511 94.7978 109.07 95.6368 109.07Z" fill="white"/>
<path opacity="0.5" d="M95.6368 122.59C96.3828 122.59 97.0351 122.031 97.0351 121.192V115.784C97.0351 115.038 96.3821 114.386 95.6368 114.386C94.8908 114.386 94.2384 114.945 94.2384 115.784V121.192C94.1448 122.031 94.7978 122.59 95.6368 122.59Z" fill="white"/>
<path opacity="0.5" d="M95.6368 136.203C96.3828 136.203 97.0351 135.643 97.0351 134.804V129.396C97.0351 128.65 96.3821 127.998 95.6368 127.998C94.8908 127.998 94.2384 128.557 94.2384 129.396V134.804C94.1448 135.55 94.7978 136.203 95.6368 136.203Z" fill="white"/>
<path opacity="0.5" d="M88.8303 95.5503C89.5763 95.5503 90.2286 94.991 90.2286 94.152V88.744C90.2286 87.998 89.5756 87.3457 88.8303 87.3457C88.0843 87.3457 87.4319 87.905 87.4319 88.744V94.152C87.4313 94.8973 88.0843 95.5503 88.8303 95.5503Z" fill="white"/>
<path opacity="0.5" d="M88.8303 109.07C89.5763 109.07 90.2286 108.511 90.2286 107.672V102.264C90.2286 101.518 89.5756 100.865 88.8303 100.865C88.0843 100.865 87.4319 101.425 87.4319 102.264V107.672C87.4313 108.511 88.0843 109.07 88.8303 109.07Z" fill="white"/>
<path opacity="0.5" d="M88.8303 122.59C89.5763 122.59 90.2286 122.031 90.2286 121.192V115.784C90.2286 115.038 89.5756 114.386 88.8303 114.386C88.0843 114.386 87.4319 114.945 87.4319 115.784V121.192C87.4313 122.031 88.0843 122.59 88.8303 122.59Z" fill="white"/>
<path opacity="0.5" d="M88.8303 136.203C89.5763 136.203 90.2286 135.643 90.2286 134.804V129.396C90.2286 128.65 89.5756 127.998 88.8303 127.998C88.0843 127.998 87.4319 128.557 87.4319 129.396V134.804C87.4313 135.55 88.0843 136.203 88.8303 136.203Z" fill="white"/>
<path d="M113.912 97.0421C116.243 97.0421 118.201 95.3642 118.574 93.2191H127.245C129.856 93.2191 132 91.0748 132 88.464V88.371C132 85.7603 129.856 83.616 127.245 83.616L111.021 83.6153C108.69 83.6153 106.732 85.2933 106.359 87.4383H104.215V82.0304C104.215 81.2844 103.562 80.632 102.816 80.632H97.0355V71.308C97.0355 70.562 96.3825 69.9097 95.6372 69.9097H90.5088L90.5081 60.3983C90.5081 59.6523 89.8551 59 89.1098 59C88.3638 59 87.7115 59.653 87.7115 60.3983V69.909H82.5831C81.8371 69.909 81.1847 70.562 81.1847 71.3074V80.6314H75.404C74.658 80.6314 74.0057 81.2844 74.0057 82.0297V113.452C71.5816 110.095 67.8517 107.857 63.4694 107.484V98.7196C63.4694 97.9736 62.8164 97.3212 62.071 97.3212C61.325 97.3212 60.6727 97.9742 60.6727 98.7196V107.484C53.2133 108.23 47.3397 114.477 47.3397 122.123V141.797C47.3397 142.543 47.9927 143.195 48.738 143.195H75.3115L102.722 143.196H130.135C130.881 143.196 131.533 142.543 131.533 141.798L131.534 99.3734C131.534 98.9071 131.254 98.4407 130.881 98.1611C130.508 97.8814 129.948 98.3477 129.483 98.5337L104.215 110.003V97.0424L113.912 97.0421ZM104.215 90.2351H107.199C108.224 90.2351 109.157 89.3961 109.157 88.2767C109.157 87.2511 109.996 86.3184 111.115 86.3184H127.339C128.365 86.3184 129.298 87.1574 129.298 88.2767V88.3697C129.298 89.3954 128.459 90.3281 127.339 90.3281L117.734 90.3288C116.709 90.3288 115.776 91.1678 115.776 92.2871C115.776 93.3128 114.937 94.2455 113.817 94.2455L104.214 94.2449H96.569C95.5434 94.2449 94.6107 93.2192 94.6107 92.1936C94.6107 91.1679 95.4497 90.2352 96.569 90.2352L104.215 90.2351ZM83.9814 72.7059H94.1445V80.6317L83.9814 80.631V72.7059ZM76.8018 83.4282H101.324V87.4372H96.662C92.7459 87.4372 91.7202 90.4213 91.7202 92.1923C91.7202 94.8031 93.8646 97.041 96.4753 97.041H101.23L101.231 112.239V140.305L76.8021 140.305L76.8018 83.4282ZM128.737 140.305H104.214V113.172L128.737 101.983V140.305ZM60.6712 110.281C61.0439 110.281 61.3242 110.188 61.6039 110.188C61.6969 110.188 61.8835 110.281 62.0702 110.281C62.2569 110.281 62.3499 110.281 62.5365 110.188C62.8162 110.188 63.1895 110.188 63.4692 110.281C68.8771 110.934 73.2596 115.223 73.912 120.724H50.2289C50.8813 115.223 55.1707 110.934 60.6717 110.281H60.6712ZM50.1349 123.522H56.1952V140.305H50.1349V123.522ZM58.9932 123.522H65.0535V140.305H58.9932V123.522ZM67.9439 123.522H74.0042V140.305H67.9439V123.522Z" fill="white"/>
</svg>
