<svg width="132" height="53" viewBox="0 0 132 53" fill="none" xmlns="http://www.w3.org/2000/svg">
<g clip-path="url(#clip0_511_962)">
<path d="M16.4581 37.456C16.4581 37.8998 16.8147 38.2592 17.2561 38.2592H24.6715L17.0064 40.8313C16.5851 40.9689 16.3593 41.4273 16.4961 41.8456C16.609 42.1857 16.9239 42.3982 17.2561 42.3982C17.3395 42.3982 17.4271 42.3831 17.511 42.3581L29.851 38.2196C30.2235 38.0962 30.4545 37.7175 30.3898 37.3274C30.3261 36.9388 29.993 36.6523 29.6008 36.6523H17.2556C16.8147 36.6528 16.4581 37.0113 16.4581 37.456Z" fill="white"/>
<path d="M29.0315 45.1618C29.0179 45.1764 27.1662 46.9944 23.4308 46.9944C21.416 46.9944 19.9513 46.4729 19.0292 45.9844L29.8501 42.3579C30.2718 42.2152 30.4967 41.7573 30.3604 41.3385C30.217 40.915 29.7667 40.6875 29.345 40.8312L17.0059 44.9645C16.7407 45.053 16.5402 45.2749 16.4769 45.5453C16.4127 45.8171 16.4957 46.1026 16.692 46.299C16.7852 46.3928 19.0339 48.6012 23.4304 48.6012C27.8208 48.6012 30.0708 46.3928 30.1645 46.299C30.478 45.9844 30.478 45.4718 30.1645 45.1618C29.8506 44.8467 29.3455 44.8467 29.0315 45.1618Z" fill="white"/>
<path d="M23.4308 5.63184C16.1817 5.63184 10.2872 11.5586 10.2872 18.841C10.2872 22.5018 12.2467 25.4287 13.9725 28.0065C15.305 29.9911 16.4582 31.7064 16.4582 33.3222C16.4582 33.7655 16.8147 34.1249 17.2561 34.1249C17.6975 34.1249 18.0602 33.7655 18.0602 33.3222C18.0602 31.2136 16.7163 29.2176 15.3004 27.1043C13.6196 24.6015 11.885 22.0147 11.885 18.841C11.885 12.4461 17.0649 7.23823 23.4313 7.23823C29.7929 7.23823 34.9719 12.4465 34.9719 18.841C34.9719 22.0147 33.2321 24.601 31.5566 27.1043C30.1401 29.2176 28.8024 31.2141 28.8024 33.3222C28.8024 33.7655 29.1594 34.1249 29.6008 34.1249C30.0417 34.1249 30.4002 33.7655 30.4002 33.3222C30.4002 31.7064 31.5514 29.9911 32.884 28.0065C34.6097 25.4287 36.5697 22.5023 36.5697 18.841C36.5697 11.5586 30.6733 5.63184 23.4308 5.63184Z" fill="white"/>
<path d="M24.2292 10.5683C24.2292 10.125 23.8713 9.76514 23.4308 9.76514C18.4514 9.76514 14.3989 13.84 14.3989 18.8406C14.3989 19.2895 14.7568 19.649 15.1973 19.649C15.6434 19.649 16.0013 19.2895 16.0013 18.8406C16.0013 14.7271 19.3337 11.3762 23.4308 11.3762C23.8713 11.3762 24.2292 11.0116 24.2292 10.5683Z" fill="white"/>
<path d="M9.64486 9.77031C9.7873 9.87348 9.95411 9.92294 10.1158 9.92294C10.3655 9.92294 10.6059 9.80988 10.7624 9.59271C11.022 9.23328 10.9432 8.73063 10.5862 8.46918L5.59228 4.81827C5.2343 4.55729 4.73482 4.64067 4.47477 5.00058C4.21518 5.35578 4.2939 5.85748 4.65141 6.12412L9.64486 9.77031Z" fill="white"/>
<path d="M36.7407 9.92294C36.9033 9.92294 37.0696 9.87348 37.2126 9.77031L42.2055 6.12412C42.5635 5.85748 42.6422 5.35578 42.3812 5.00058C42.1217 4.64067 41.6217 4.55729 41.2637 4.81827L36.2698 8.46918C35.9128 8.73063 35.8345 9.23328 36.0941 9.59271C36.2515 9.80988 36.4914 9.92294 36.7407 9.92294Z" fill="white"/>
<path d="M46.058 18.0381H39.8871C39.4415 18.0381 39.084 18.3975 39.084 18.8408C39.084 19.2898 39.4415 19.6492 39.8871 19.6492H46.058C46.498 19.6492 46.856 19.2898 46.856 18.8408C46.856 18.398 46.498 18.0381 46.058 18.0381Z" fill="white"/>
<path d="M7.77341 18.8408C7.77341 18.3975 7.41543 18.0381 6.97404 18.0381H0.798895C0.358448 18.0376 0 18.3975 0 18.8408C0 19.2898 0.358448 19.6492 0.798895 19.6492H6.97404C7.41543 19.6487 7.77341 19.2893 7.77341 18.8408Z" fill="white"/>
<path d="M37.2126 27.9167C36.8532 27.6557 36.3532 27.7339 36.0941 28.0943C35.8345 28.4542 35.9128 28.9564 36.2698 29.2174L41.2637 32.8636C41.4066 32.9677 41.5734 33.0214 41.7346 33.0214C41.9802 33.0214 42.2252 32.9031 42.3812 32.6864C42.6422 32.3265 42.5635 31.8239 42.2055 31.5629L37.2126 27.9167Z" fill="white"/>
<path d="M9.64481 27.9167L4.65136 31.5629C4.29339 31.8239 4.21514 32.3265 4.47472 32.6864C4.63262 32.9031 4.87627 33.0214 5.12133 33.0214C5.28767 33.0214 5.44979 32.9677 5.59223 32.8636L10.5861 29.2174C10.9437 28.9564 11.0219 28.4542 10.7623 28.0943C10.5023 27.7339 10.0023 27.6557 9.64481 27.9167Z" fill="white"/>
<path d="M71.6751 17.3863C69.3718 18.8934 68.2384 19.3345 66.6663 19.3345C65.5695 19.3345 64.5458 19.0404 63.5587 18.4523C61.6209 17.276 60.3048 15.1441 60.3048 12.9387C60.3048 11.7624 60.5973 10.6597 61.1822 9.66723C62.3156 7.68232 64.4727 6.50608 66.6663 6.50608C68.0556 6.50608 69.2987 6.91042 70.3589 7.68232C70.5417 7.7926 70.7611 7.93963 71.017 8.19693L71.5654 8.60126L74.015 5.69742L73.6128 5.29308C73.3569 5.03578 73.0278 4.81524 72.6257 4.55793C70.9073 3.23466 68.8965 2.57303 66.6663 2.57303C63.9243 2.57303 61.4016 3.639 59.3908 5.58715C57.453 7.64557 56.3562 10.1818 56.3562 12.9387C56.3562 15.6955 57.453 18.3053 59.3908 20.2534C61.3285 22.2016 63.9243 23.3043 66.6663 23.3043C68.6406 23.3043 70.4686 22.7529 72.1869 21.6502L71.4557 20.5475C69.9568 21.5399 68.3846 22.0178 66.6663 22.0178C64.2899 22.0178 62.0231 21.0621 60.3048 19.3345C58.5864 17.6069 57.6724 15.3279 57.6724 12.9387C57.6724 10.5494 58.5864 8.3072 60.3048 6.5796C62.0231 4.81524 64.2899 3.8963 66.6663 3.8963C68.4578 3.8963 70.1761 4.44766 71.8945 5.58715L72.1869 5.84445L71.3826 6.76339C71.2729 6.72663 71.1998 6.68987 71.1267 6.61636C69.7739 5.69742 68.275 5.21957 66.6663 5.21957C65.2404 5.21957 63.9608 5.55039 62.8274 6.21202C60.5241 7.57205 58.9886 10.2554 58.9886 12.9387C58.9886 14.2252 59.3542 15.5117 60.0488 16.7247C61.4747 19.1874 64.0705 20.6945 66.6663 20.6945C68.3846 20.6945 69.7739 20.1799 71.8579 18.8566L73.9053 21.9075C71.2364 23.6719 69.1524 24.407 66.6663 24.407C64.6189 24.407 62.7178 23.8924 60.9629 22.8632C57.4165 20.8048 55.2229 17.0555 55.2229 12.9387C55.2229 10.8802 55.7347 8.96884 56.7584 7.16772C58.8058 3.639 62.5715 1.43354 66.6663 1.43354C69.5546 1.43354 72.2966 2.49951 74.3806 4.44766L74.5999 4.63145L74.8924 4.92551L75.8064 3.96981L75.2946 3.45521C72.9547 1.36003 69.8836 0.14703 66.6663 0.14703C64.363 0.14703 62.2425 0.698393 60.3048 1.83788C56.4294 4.08009 53.9067 8.38072 53.9067 12.9387C53.9067 15.1809 54.4916 17.3128 55.6616 19.2977C57.9649 23.2675 62.0962 25.767 66.6663 25.767C69.5546 25.767 71.9676 24.8481 75.2215 22.6059L75.7333 22.2751L72.2601 17.0187L71.6751 17.3863ZM77.8173 0.0367575H81.6561V23.3043H80.3399V1.36003H79.1334V24.4438H82.8261V0.0367575H84.1422V25.767H77.8173V0.0367575ZM94.9642 4.81524H103.702V1.32327H88.1639V2.46275H102.459V3.78603H86.8477V0H105.018V6.13851H96.2803V23.341H94.9642V4.81524ZM92.5146 6.13851H86.8477V4.81524H93.8308V24.407H97.4868V7.27799H98.803V25.767H92.5146V6.13851ZM118.984 23.4145H120.301L120.264 12.7181L128.051 1.36003H129.477L121.544 12.7916V24.4438H117.778L117.814 12.7916L108.93 0.0367575H107.322L116.425 13.196V25.767H122.86V13.196L132 0.0367575H127.393L118.984 12.277V23.4145ZM124.359 0.0367575L118.253 9.04235L112.842 1.36003H114.268L118.363 7.16772L119.167 5.99148L114.963 0.0367575H110.356L117.632 10.4391L118.253 11.3948L125.967 0.0367575H124.359Z" fill="white"/>
<path d="M68.3626 46.2298C70.7981 44.5184 72.2646 41.6748 72.2646 38.6996C72.2646 37.0935 71.8456 35.54 71.0338 34.0919C69.3577 31.1957 66.2675 29.458 63.0987 29.458C61.4489 29.458 59.9038 29.8792 58.5158 30.6954C55.6875 32.3542 53.9067 35.4347 53.9067 38.6996C53.9067 41.0166 54.7447 43.1756 56.2898 44.9396C57.8349 46.5984 59.93 47.6515 62.156 47.8885L61.5275 46.7827C59.7728 46.4667 58.2015 45.5715 57.0231 44.2814C55.6351 42.7806 54.8495 40.7796 54.8495 38.6996C54.8495 37.1988 55.2161 35.8033 55.9494 34.5132C57.4159 31.9856 60.1919 30.4058 63.0987 30.4058C64.5391 30.4058 65.9009 30.7744 67.1841 31.5117C69.7244 32.9861 71.2957 35.6717 71.2957 38.6996C71.2957 41.3588 70.0124 43.8864 67.8388 45.4399L66.6342 46.2298L69.7767 51.3377L70.2481 52.1275H67.0794L62.7321 45.1766L62.4964 45.1503C61.4751 45.0713 60.5061 44.7027 59.5895 44.0971C57.7302 42.8596 56.6303 40.8849 56.6303 38.6996C56.6303 37.5147 56.9183 36.4089 57.4945 35.4084C58.6467 33.4074 60.768 32.1699 63.0987 32.1699C64.2772 32.1699 65.3509 32.4595 66.3461 33.0388C68.3102 34.1973 69.5149 36.4089 69.5149 38.6996C69.5149 40.9902 68.415 43.0439 66.5032 44.2287L66.0056 43.4125C67.6555 42.3857 68.6507 40.5953 68.6507 38.6732C68.6507 37.6464 68.415 36.6985 67.9174 35.8297C66.9484 34.1183 65.1414 33.0651 63.0726 33.0651C62.1298 33.0651 61.2132 33.3284 60.349 33.8286C58.5944 34.8555 57.5207 36.6985 57.5207 38.6732C57.5207 39.6474 57.7825 40.569 58.2801 41.4378C59.3015 43.2019 61.1608 44.2814 63.1511 44.2814L67.6293 51.3377H68.7292L63.6487 43.2809L63.3606 43.3335H63.0726C62.2607 43.3335 61.4751 43.1229 60.768 42.7016C59.3276 41.8591 58.4634 40.332 58.4634 38.6732C58.4634 37.8307 58.6729 37.0408 59.0919 36.3299C59.9038 34.8818 61.4227 34.0393 63.0726 34.0393C63.9106 34.0393 64.6962 34.2499 65.4033 34.6448C66.8437 35.4611 67.7079 36.9882 67.7079 38.6732C67.7079 40.4636 66.7127 42.0171 65.1414 42.8333L64.6439 43.0439L66.1628 45.4662L66.5556 45.2819C68.9911 43.9918 70.4838 41.4641 70.4838 38.6996C70.4838 37.3304 70.1696 36.093 69.5411 34.9608C68.2578 32.7491 65.7176 31.2484 63.0987 31.2484C61.7631 31.2484 60.5061 31.5906 59.38 32.2489C57.1016 33.5917 55.6613 35.9876 55.6613 38.6996C55.6613 40.569 56.3684 42.3593 57.6254 43.7285C58.7515 44.9923 60.3752 45.8348 62.156 46.0718L66.5556 53.0754H71.9504L67.9436 46.5194L68.3364 46.2561L68.3626 46.2298ZM81.4043 47.8885C78.8641 47.8885 76.9261 47.2303 75.6429 45.9138C74.3859 44.65 73.7312 42.7806 73.7312 40.569V29.4843H78.1832V40.569C78.1832 42.57 79.1521 43.4125 81.2734 43.4125C83.3423 43.4125 84.4683 42.3857 84.4683 40.569V29.4843H87.1657V40.569C87.1657 41.9644 86.7991 43.2809 86.092 44.2287C85.1492 45.5189 83.6565 46.1244 81.3519 46.1244C80.0163 46.1244 78.9426 45.9401 78.1308 45.5452C76.4809 44.7816 75.4858 43.0702 75.4858 40.569V31.1694H76.4286V40.569C76.4286 43.5442 78.1308 45.1766 81.3519 45.1766C84.5731 45.1766 86.223 43.5442 86.223 40.569V30.4322H85.4111V40.569C85.4111 42.8859 83.866 44.3604 81.2734 44.3604C78.6546 44.3604 77.2666 43.0176 77.2666 40.569V30.4322H74.6739V40.569C74.6739 44.7553 76.9785 46.9407 81.4043 46.9407C83.7089 46.9407 85.2802 46.3877 86.3539 45.2556C87.4276 44.1234 88.0038 42.491 88.0038 40.569V29.4843H88.9465V40.569C88.9465 42.7806 88.2656 44.6237 87.0086 45.9138C85.7516 47.2303 83.8922 47.8885 81.4043 47.8885ZM90.9107 29.5106H91.8534V46.9407H101.884V44.3077H94.4984V41.7801H95.4412V43.3599H102.826V47.8885H90.9107V29.5106ZM92.6915 29.5106H102.695V34.0129H96.4102V33.0651H101.753V30.4585H93.6342V38.0677H99.7361V39.0155H92.6915V29.5106ZM92.6915 39.8581H100.653V37.2251H94.4984V31.2484H100.836V32.1962H95.4412V36.2773H101.595V40.8059H93.6342V45.1766H100.967V46.1244H92.6915V39.8581ZM107.697 43.5442C108.981 44.1234 110.107 44.413 111.049 44.413C111.521 44.413 111.809 44.3867 111.94 44.3077C112.542 44.1497 112.961 43.8075 113.223 43.2809L113.249 43.2282C113.38 42.9913 113.433 42.7016 113.433 42.333C113.433 42.1487 113.38 41.9381 113.275 41.6748L113.223 41.5695C112.883 40.8586 112.123 40.3846 110.735 39.937L110.473 39.8581L110.395 39.8317C108.273 39.1998 106.912 38.1993 106.257 36.8039C105.995 36.2773 105.864 35.698 105.864 35.0661C105.864 34.4079 105.995 33.776 106.257 33.1177L106.309 33.0124C106.912 31.8013 107.881 31.0114 109.164 30.6165C110.08 30.4848 110.604 30.4058 110.735 30.4058C112.516 30.4058 114.585 31.143 116.916 32.5912L117.413 31.775C114.873 30.2215 112.673 29.458 110.761 29.458C110.002 29.458 109.373 29.537 108.928 29.7213C107.383 30.1425 106.231 31.0904 105.471 32.5912L105.393 32.7755C105.078 33.539 104.921 34.3026 104.921 35.0661C104.921 35.8823 105.078 36.5932 105.393 37.2251C106.205 38.8575 107.776 40.016 110.133 40.7269L110.447 40.8322C111.521 41.1745 112.149 41.5431 112.385 41.9644L112.411 42.0171C112.464 42.0961 112.49 42.2014 112.49 42.333C112.49 42.57 112.464 42.728 112.385 42.8596C112.202 43.2809 111.756 43.4915 111.049 43.4915C109.923 43.4915 108.3 42.9123 107.043 42.0961L106.65 41.8591L104.345 45.5979L104.738 45.8348C106.597 47.0986 109.059 47.8885 111.049 47.8885C111.704 47.8885 112.306 47.8095 112.856 47.6515C114.401 47.2039 115.554 46.2298 116.313 44.7553L116.418 44.571C116.732 43.7548 116.889 42.9913 116.889 42.2804C116.889 41.6485 116.68 40.8586 116.287 39.8844C115.58 38.4626 114.087 37.3831 111.756 36.6459L111.39 36.5406C110.657 36.3036 110.159 36.0666 109.923 35.8823C109.609 35.619 109.426 35.4347 109.347 35.3294L109.295 35.0398C109.295 34.7765 109.347 34.5395 109.478 34.3552C109.688 33.9603 109.897 33.855 110.735 33.855C111.861 33.855 113.485 34.4342 114.742 35.2504L115.135 35.4874L116.549 33.2231L116.13 32.9861C114.532 31.9329 112.359 31.1957 110.761 31.1957C110.054 31.1957 109.609 31.2484 109.373 31.38C108.3 31.696 107.488 32.3805 106.964 33.4074C106.728 33.855 106.624 34.3816 106.624 35.0398C106.624 35.54 106.728 36.014 106.938 36.4616C107.488 37.6464 108.719 38.5153 110.63 39.0945L110.971 39.1998L111.678 39.4631C112.071 39.6211 112.49 39.8317 112.961 40.095C113.799 40.5953 114.218 41.3062 114.218 42.254C114.218 42.7806 114.087 43.2809 113.852 43.7285C113.302 44.7027 112.359 45.2029 111.049 45.2029C110.159 45.2029 108.902 44.8606 107.278 44.2024L106.833 44.966L106.807 45.0186C108.3 45.7822 109.714 46.1508 111.076 46.1508C111.835 46.1508 112.542 45.9928 113.171 45.6768C114.401 45.0713 115.161 43.8075 115.161 42.2277C115.161 39.7264 113.249 38.9892 111.233 38.2783L110.892 38.173C109.242 37.6727 108.221 36.9882 107.802 36.0666C107.645 35.7507 107.566 35.4084 107.566 35.0135C107.566 34.5132 107.645 34.1183 107.828 33.776C108.247 33.0124 108.85 32.5122 109.635 32.2752L110.683 32.1436C112.071 32.1436 113.59 32.6175 115.24 33.539L114.821 34.1973C113.118 33.3547 111.756 32.9334 110.761 32.9334C110.264 32.9334 109.976 32.9598 109.845 33.0388C109.269 33.1967 108.85 33.539 108.562 34.0919L108.535 34.1446C108.404 34.3816 108.352 34.6975 108.352 35.0924C108.352 35.3821 108.404 35.5927 108.483 35.7244C108.823 36.4352 109.714 37.0145 111.128 37.4358L111.468 37.5411L112.123 37.7517C112.202 37.778 112.621 37.9623 113.38 38.331C114.401 38.9102 115.135 39.6474 115.554 40.5163C115.816 41.0429 115.947 41.6221 115.947 42.254C115.947 43.0176 115.816 43.6758 115.528 44.2287L115.475 44.334C114.873 45.5452 113.904 46.3351 112.621 46.73C111.704 46.8617 111.18 46.9407 111.049 46.9407C109.714 46.9407 107.985 46.4404 106.388 45.6768L105.655 45.2819L106.964 43.1492L107.697 43.5442ZM124.798 32.8808H131.057V30.3795H119.927V31.1957H130.167V32.1436H118.984V29.4316H132V33.8286H125.741V46.1508H124.798V32.8808ZM123.044 33.8286H118.984V32.8808H123.986V46.9143H126.605V34.6448H127.548V47.8885H123.044V33.8286Z" fill="white"/>
</g>
<defs>
<clipPath id="clip0_511_962">
<rect width="132" height="53" fill="white"/>
</clipPath>
</defs>
</svg>
