<svg width="1600" height="960" viewBox="0 0 1600 960" fill="none" xmlns="http://www.w3.org/2000/svg">
<rect width="1600" height="960" fill="url(#paint0_linear_210_1148)"/>
<g clip-path="url(#clip0_210_1148)">
<path d="M333.856 583.651C333.856 587.829 337.211 591.213 341.364 591.213H411.137L339.015 615.43C335.051 616.725 332.926 621.041 334.213 624.979C335.276 628.182 338.239 630.182 341.364 630.182C342.149 630.182 342.974 630.04 343.763 629.805L459.871 590.841C463.376 589.679 465.549 586.113 464.941 582.44C464.341 578.781 461.207 576.084 457.517 576.084H341.36C337.211 576.089 333.856 579.464 333.856 583.651Z" fill="white"/>
<path d="M452.16 656.204C452.032 656.341 434.609 673.457 399.463 673.457C380.505 673.457 366.723 668.547 358.047 663.948L459.862 629.805C463.83 628.461 465.946 624.15 464.663 620.207C463.314 616.219 459.077 614.077 455.109 615.43L339.01 654.345C336.515 655.179 334.628 657.268 334.033 659.814C333.429 662.373 334.209 665.061 336.056 666.911C336.934 667.793 358.091 688.586 399.458 688.586C440.768 688.586 461.939 667.793 462.82 666.911C465.77 663.948 465.77 659.122 462.82 656.204C459.866 653.237 455.114 653.237 452.16 656.204Z" fill="white"/>
<path d="M399.463 284.024C331.255 284.024 275.793 339.825 275.793 408.39C275.793 442.857 294.231 470.413 310.468 494.683C323.006 513.369 333.856 529.518 333.856 544.731C333.856 548.905 337.211 552.289 341.364 552.289C345.517 552.289 348.93 548.905 348.93 544.731C348.93 524.879 336.286 506.086 322.962 486.19C307.148 462.625 290.827 438.271 290.827 408.39C290.827 348.181 339.566 299.148 399.467 299.148C459.324 299.148 508.054 348.185 508.054 408.39C508.054 438.271 491.684 462.62 475.919 486.19C462.591 506.086 450.004 524.883 450.004 544.731C450.004 548.905 453.364 552.289 457.517 552.289C461.665 552.289 465.038 548.905 465.038 544.731C465.038 529.518 475.87 513.369 488.409 494.683C504.646 470.413 523.088 442.861 523.088 408.39C523.088 339.825 467.608 284.024 399.463 284.024Z" fill="white"/>
<path d="M406.975 330.502C406.975 326.328 403.607 322.939 399.463 322.939C352.611 322.939 314.48 361.305 314.48 408.386C314.48 412.612 317.848 415.997 321.992 415.997C326.19 415.997 329.558 412.612 329.558 408.386C329.558 369.657 360.913 338.108 399.463 338.108C403.607 338.108 406.975 334.675 406.975 330.502Z" fill="white"/>
<path d="M269.749 322.988C271.089 323.959 272.659 324.425 274.18 324.425C276.53 324.425 278.791 323.361 280.264 321.316C282.706 317.932 281.966 313.199 278.606 310.738L231.618 276.364C228.25 273.907 223.55 274.692 221.103 278.081C218.661 281.425 219.402 286.148 222.765 288.659L269.749 322.988Z" fill="white"/>
<path d="M524.697 324.425C526.227 324.425 527.792 323.959 529.136 322.988L576.116 288.659C579.484 286.148 580.225 281.425 577.769 278.081C575.326 274.692 570.622 273.907 567.254 276.364L520.266 310.738C516.906 313.199 516.17 317.932 518.613 321.316C520.094 323.361 522.351 324.425 524.697 324.425Z" fill="white"/>
<path d="M612.364 400.828H554.301C550.109 400.828 546.745 404.212 546.745 408.385C546.745 412.612 550.109 415.996 554.301 415.996H612.364C616.504 415.996 619.872 412.612 619.872 408.385C619.872 404.216 616.504 400.828 612.364 400.828Z" fill="white"/>
<path d="M252.141 408.39C252.141 404.216 248.772 400.832 244.619 400.832H186.517C182.373 400.828 179 404.216 179 408.39C179 412.617 182.373 416.001 186.517 416.001H244.619C248.772 415.996 252.141 412.612 252.141 408.39Z" fill="white"/>
<path d="M529.136 493.841C525.755 491.384 521.051 492.12 518.613 495.513C516.17 498.901 516.906 503.629 520.266 506.087L567.254 540.416C568.599 541.396 570.168 541.902 571.685 541.902C573.995 541.902 576.301 540.788 577.769 538.748C580.225 535.36 579.484 530.627 576.116 528.17L529.136 493.841Z" fill="white"/>
<path d="M269.749 493.841L222.765 528.17C219.397 530.627 218.661 535.36 221.103 538.748C222.589 540.788 224.882 541.902 227.187 541.902C228.752 541.902 230.278 541.396 231.618 540.416L278.606 506.087C281.97 503.629 282.706 498.901 280.264 495.513C277.817 492.12 273.113 491.384 269.749 493.841Z" fill="white"/>
<path d="M853.398 394.694C831.726 408.883 821.062 413.036 806.269 413.036C795.949 413.036 786.317 410.267 777.029 404.73C758.797 393.656 746.413 373.583 746.413 352.819C746.413 341.744 749.165 331.362 754.669 322.018C765.333 303.33 785.629 292.255 806.269 292.255C819.342 292.255 831.038 296.062 841.014 303.33C842.734 304.368 844.798 305.752 847.206 308.175L852.366 311.982L875.414 284.642L871.63 280.835C869.222 278.412 866.126 276.336 862.342 273.913C846.174 261.455 827.254 255.225 806.269 255.225C780.469 255.225 756.733 265.262 737.813 283.604C719.581 302.984 709.261 326.863 709.261 352.819C709.261 378.774 719.581 403.346 737.813 421.688C756.045 440.03 780.469 450.412 806.269 450.412C824.846 450.412 842.046 445.221 858.214 434.839L851.334 424.456C837.23 433.8 822.438 438.299 806.269 438.299C783.909 438.299 762.581 429.301 746.413 413.036C730.245 396.77 721.645 375.314 721.645 352.819C721.645 330.324 730.245 309.213 746.413 292.948C762.581 276.336 783.909 267.684 806.269 267.684C823.126 267.684 839.294 272.875 855.462 283.604L858.214 286.026L850.646 294.678C849.614 294.332 848.926 293.986 848.238 293.294C835.51 284.642 821.406 280.143 806.269 280.143C792.853 280.143 780.813 283.257 770.149 289.487C748.477 302.292 734.029 327.555 734.029 352.819C734.029 364.931 737.469 377.044 744.005 388.464C757.421 411.652 781.845 425.841 806.269 425.841C822.438 425.841 835.51 420.996 855.118 408.537L874.382 437.261C849.27 453.873 829.662 460.794 806.269 460.794C787.005 460.794 769.117 455.949 752.605 446.259C719.237 426.879 698.597 391.579 698.597 352.819C698.597 333.438 703.413 315.442 713.045 298.485C732.309 265.261 767.741 244.497 806.269 244.497C833.446 244.497 859.246 254.533 878.854 272.875L880.918 274.606L883.67 277.374L892.27 268.376L887.454 263.531C865.438 243.805 836.542 232.384 806.269 232.384C784.597 232.384 764.645 237.575 746.413 248.304C709.949 269.414 686.213 309.905 686.213 352.819C686.213 373.929 691.717 394.002 702.725 412.69C724.397 450.066 763.269 473.599 806.269 473.599C833.446 473.599 856.15 464.947 886.766 443.837L891.582 440.722L858.902 391.233L853.398 394.694ZM911.19 231.346H947.31V450.412H934.926V243.805H923.574V461.14H958.318V231.346H970.702V473.599H911.19V231.346ZM1072.53 276.336H1154.74V243.459H1008.54V254.187H1143.05V266.646H996.158V231H1167.13V288.795H1084.91V450.758H1072.53V276.336ZM1049.48 288.795H996.158V276.336H1061.86V460.794H1096.26V299.523H1108.65V473.599H1049.48V288.795ZM1298.54 451.45H1310.92L1310.58 350.742L1383.85 243.805H1397.26L1322.62 351.434V461.14H1287.18L1287.53 351.434L1203.94 231.346H1188.8L1274.46 355.241V473.599H1335V355.241L1421 231.346H1377.66L1298.54 346.589V451.45ZM1349.1 231.346L1291.66 316.135L1240.74 243.805H1254.16L1292.69 298.485L1300.26 287.41L1260.7 231.346H1217.35L1285.81 329.285L1291.66 338.283L1364.24 231.346H1349.1Z" fill="white"/>
<path d="M822.23 666.257C845.146 650.144 858.945 623.371 858.945 595.359C858.945 580.238 855.002 565.612 847.363 551.978C831.593 524.71 802.517 508.349 772.702 508.349C757.178 508.349 742.64 512.315 729.581 520C702.969 535.617 686.213 564.621 686.213 595.359C686.213 617.174 694.098 637.501 708.636 654.11C723.174 669.727 742.887 679.643 763.831 681.874L757.918 671.463C741.408 668.488 726.624 660.06 715.535 647.913C702.476 633.783 695.084 614.943 695.084 595.359C695.084 581.23 698.533 568.091 705.433 555.944C719.232 532.147 745.351 517.273 772.702 517.273C786.254 517.273 799.068 520.744 811.142 527.685C835.043 541.567 849.828 566.852 849.828 595.359C849.828 620.397 837.754 644.194 817.302 658.82L805.967 666.257L835.536 714.348L839.971 721.785H810.156L769.252 656.341L767.035 656.093C757.425 655.35 748.308 651.879 739.683 646.178C722.188 634.527 711.839 615.935 711.839 595.359C711.839 584.204 714.55 573.793 719.971 564.373C730.813 545.533 750.772 533.882 772.702 533.882C783.79 533.882 793.893 536.609 803.257 542.062C821.737 552.97 833.072 573.793 833.072 595.359C833.072 616.926 822.723 636.262 804.735 647.417L800.053 639.732C815.577 630.065 824.94 613.208 824.94 595.112C824.94 585.444 822.723 576.52 818.041 568.339C808.924 552.226 791.922 542.31 772.456 542.31C763.585 542.31 754.961 544.789 746.829 549.499C730.32 559.167 720.217 576.52 720.217 595.112C720.217 604.284 722.681 612.96 727.363 621.14C736.973 637.749 754.468 647.913 773.195 647.913L815.33 714.348H825.68L777.877 638.493L775.166 638.989H772.456C764.817 638.989 757.425 637.006 750.772 633.039C737.219 625.107 729.088 610.729 729.088 595.112C729.088 587.179 731.059 579.742 735.002 573.049C742.64 559.415 756.932 551.482 772.456 551.482C780.341 551.482 787.733 553.466 794.386 557.184C807.938 564.869 816.07 579.246 816.07 595.112C816.07 611.968 806.706 626.594 791.922 634.279L787.24 636.262L801.532 659.068L805.228 657.333C828.144 645.186 842.189 621.388 842.189 595.359C842.189 582.469 839.232 570.818 833.318 560.159C821.244 539.336 797.343 525.206 772.702 525.206C760.135 525.206 748.308 528.428 737.712 534.626C716.275 547.268 702.722 569.826 702.722 595.359C702.722 612.96 709.375 629.817 721.203 642.707C731.798 654.606 747.076 662.539 763.831 664.77L805.228 730.709H855.988L818.287 668.984L821.984 666.505L822.23 666.257ZM944.941 681.874C921.039 681.874 902.805 675.677 890.731 663.282C878.904 651.383 872.743 633.783 872.743 612.96V508.597H914.633V612.96C914.633 631.8 923.75 639.732 943.709 639.732C963.175 639.732 973.771 630.065 973.771 612.96V508.597H999.15V612.96C999.15 626.098 995.701 638.493 989.048 647.417C980.177 659.564 966.132 665.265 944.448 665.265C931.881 665.265 921.779 663.53 914.14 659.812C898.616 652.623 889.253 636.51 889.253 612.96V524.462H898.123V612.96C898.123 640.972 914.14 656.341 944.448 656.341C974.756 656.341 990.28 640.972 990.28 612.96V517.521H982.641V612.96C982.641 634.775 968.103 648.657 943.709 648.657C919.068 648.657 906.008 636.014 906.008 612.96V517.521H881.614V612.96C881.614 652.375 903.298 672.95 944.941 672.95C966.625 672.95 981.409 667.744 991.512 657.085C1001.61 646.426 1007.04 631.056 1007.04 612.96V508.597H1015.91V612.96C1015.91 633.783 1009.5 651.135 997.672 663.282C985.844 675.677 968.35 681.874 944.941 681.874ZM1034.39 508.845H1043.26V672.95H1137.63V648.161H1068.14V624.363H1077.02V639.237H1146.5V681.874H1034.39V508.845ZM1051.14 508.845H1145.27V551.234H1086.13V542.31H1136.4V517.769H1060.01V589.41H1117.43V598.334H1051.14V508.845ZM1051.14 606.267H1126.05V581.477H1068.14V525.206H1127.78V534.13H1077.02V572.553H1134.92V615.191H1060.01V656.341H1129.01V665.265H1051.14V606.267ZM1192.33 640.972C1204.41 646.426 1215 649.152 1223.87 649.152C1228.31 649.152 1231.02 648.904 1232.25 648.161C1237.92 646.673 1241.86 643.451 1244.33 638.493L1244.57 637.997C1245.8 635.766 1246.3 633.039 1246.3 629.569C1246.3 627.833 1245.8 625.85 1244.82 623.371L1244.33 622.38C1241.12 615.687 1233.98 611.225 1220.92 607.01L1218.45 606.267L1217.71 606.019C1197.75 600.069 1184.94 590.65 1178.78 577.511C1176.32 572.553 1175.09 567.1 1175.09 561.15C1175.09 554.953 1176.32 549.003 1178.78 542.806L1179.27 541.815C1184.94 530.411 1194.06 522.975 1206.13 519.256C1214.76 518.017 1219.69 517.273 1220.92 517.273C1237.67 517.273 1257.14 524.214 1279.07 537.848L1283.75 530.164C1259.85 515.538 1239.15 508.349 1221.16 508.349C1214.02 508.349 1208.1 509.093 1203.92 510.828C1189.38 514.794 1178.54 523.718 1171.39 537.848L1170.65 539.584C1167.69 546.772 1166.21 553.961 1166.21 561.15C1166.21 568.835 1167.69 575.528 1170.65 581.477C1178.29 596.847 1193.07 607.754 1215.25 614.447L1218.21 615.439C1228.31 618.661 1234.22 622.132 1236.44 626.098L1236.69 626.594C1237.18 627.338 1237.43 628.329 1237.43 629.569C1237.43 631.8 1237.18 633.287 1236.44 634.527C1234.72 638.493 1230.53 640.476 1223.87 640.476C1213.28 640.476 1198 635.022 1186.17 627.338L1182.48 625.107L1160.79 660.308L1164.49 662.539C1181.98 674.437 1205.15 681.874 1223.87 681.874C1230.03 681.874 1235.7 681.131 1240.88 679.643C1255.41 675.429 1266.26 666.257 1273.4 652.375L1274.39 650.64C1277.34 642.955 1278.82 635.766 1278.82 629.073C1278.82 623.124 1276.85 615.687 1273.16 606.515C1266.5 593.128 1252.46 582.965 1230.53 576.024L1227.08 575.032C1220.18 572.801 1215.5 570.57 1213.28 568.835C1210.32 566.356 1208.6 564.621 1207.86 563.629L1207.36 560.902C1207.36 558.423 1207.86 556.192 1209.09 554.457C1211.06 550.739 1213.03 549.747 1220.92 549.747C1231.51 549.747 1246.79 555.201 1258.62 562.885L1262.31 565.117L1275.62 543.798L1271.68 541.567C1256.65 531.651 1236.19 524.71 1221.16 524.71C1214.51 524.71 1210.32 525.206 1208.1 526.445C1198 529.42 1190.36 535.865 1185.43 545.533C1183.22 549.747 1182.23 554.705 1182.23 560.902C1182.23 565.612 1183.22 570.074 1185.19 574.289C1190.36 585.444 1201.94 593.624 1219.93 599.078L1223.13 600.069L1229.79 602.548C1233.48 604.036 1237.43 606.019 1241.86 608.498C1249.75 613.208 1253.69 619.901 1253.69 628.825C1253.69 633.783 1252.46 638.493 1250.24 642.707C1245.07 651.879 1236.19 656.589 1223.87 656.589C1215.5 656.589 1203.67 653.367 1188.39 647.169L1184.2 654.358L1183.96 654.854C1198 662.043 1211.31 665.513 1224.12 665.513C1231.27 665.513 1237.92 664.026 1243.83 661.051C1255.41 655.35 1262.56 643.451 1262.56 628.577C1262.56 605.027 1244.57 598.086 1225.6 591.393L1222.4 590.402C1206.87 585.692 1197.26 579.246 1193.32 570.57C1191.84 567.595 1191.1 564.373 1191.1 560.654C1191.1 555.944 1191.84 552.226 1193.57 549.003C1197.51 541.815 1203.18 537.105 1210.57 534.874L1220.42 533.634C1233.48 533.634 1247.78 538.096 1263.3 546.772L1259.36 552.97C1243.34 545.037 1230.53 541.071 1221.16 541.071C1216.48 541.071 1213.77 541.319 1212.54 542.062C1207.12 543.55 1203.18 546.772 1200.47 551.978L1200.22 552.474C1198.99 554.705 1198.49 557.68 1198.49 561.398C1198.49 564.125 1198.99 566.108 1199.73 567.348C1202.93 574.041 1211.31 579.494 1224.61 583.461L1227.82 584.452L1233.98 586.435C1234.72 586.683 1238.66 588.418 1245.8 591.889C1255.41 597.343 1262.31 604.284 1266.26 612.464C1268.72 617.422 1269.95 622.876 1269.95 628.825C1269.95 636.014 1268.72 642.211 1266.01 647.417L1265.52 648.409C1259.85 659.812 1250.73 667.249 1238.66 670.967C1230.03 672.206 1225.11 672.95 1223.87 672.95C1211.31 672.95 1195.04 668.24 1180.01 661.051L1173.11 657.333L1185.43 637.253L1192.33 640.972ZM1353.24 540.575H1412.13V517.025H1307.41V524.71H1403.75V533.634H1298.54V508.101H1421V549.499H1362.11V665.513H1353.24V540.575ZM1336.73 549.499H1298.54V540.575H1345.6V672.702H1370.24V557.184H1379.11V681.874H1336.73V549.499Z" fill="white"/>
</g>
<defs>
<linearGradient id="paint0_linear_210_1148" x1="12.2222" y1="960.002" x2="1604" y2="953.319" gradientUnits="userSpaceOnUse">
<stop stop-color="#3077A1"/>
<stop offset="1" stop-color="#314989"/>
</linearGradient>
<clipPath id="clip0_210_1148">
<rect width="1242" height="499" fill="white" transform="translate(179 231)"/>
</clipPath>
</defs>
</svg>
