<svg width="161" height="168" viewBox="0 0 161 168" fill="none" xmlns="http://www.w3.org/2000/svg">
<path fill-rule="evenodd" clip-rule="evenodd" d="M130.785 97.4764L136.184 100.085L139.303 75.7408L132.361 72.7646L125.889 77.1118L132.831 80.2217L130.785 97.4764Z" fill="#22AAAA"/>
<path fill-rule="evenodd" clip-rule="evenodd" d="M125.889 77.111L132.361 72.7639L133.803 71.7942L134.608 65.0059L137.056 44.4072L117.774 56.2114L115.259 84.2337L125.889 77.111Z" fill="#FFFF00"/>
<path fill-rule="evenodd" clip-rule="evenodd" d="M117.774 56.2116L137.056 44.4075L118.444 37.3517L112.14 34.9775L107.11 37.7865L100.336 41.5651L92.7234 45.8119L117.774 56.2116Z" fill="url(#paint0_linear_154_881)"/>
<path fill-rule="evenodd" clip-rule="evenodd" d="M100.336 41.5651L107.11 37.7864L107.881 27.0858L86.05 19.0938L85.8153 25.046L101.006 30.7641L100.336 41.5651Z" fill="#22AAAA"/>
<path fill-rule="evenodd" clip-rule="evenodd" d="M117.774 56.2122L92.7234 45.8125L92.3545 53.2361L110.128 60.8937L108.552 81.0912L115.259 84.2345L117.774 56.2122Z" fill="#7BB101"/>
<path fill-rule="evenodd" clip-rule="evenodd" d="M92.3545 53.236L92.7234 45.8124L100.336 41.5656L101.006 30.7646L81.5563 41.1978L81.221 52.2662L85.0439 50.1261L92.3545 53.236Z" fill="url(#paint1_linear_154_881)"/>
<path fill-rule="evenodd" clip-rule="evenodd" d="M92.3545 53.2359L85.044 50.126L81.221 52.2661L72.6697 57.0145L63.2129 62.3314L88.3639 74.2359L110.128 60.8935L92.3545 53.2359Z" fill="url(#paint2_linear_154_881)"/>
<path fill-rule="evenodd" clip-rule="evenodd" d="M63.2129 62.3312L72.6697 57.0143L72.8709 44.9092L51.0733 56.5796L51.5428 84.2006L63.1793 77.3789L63.2129 62.3312Z" fill="#00AEAE"/>
<path fill-rule="evenodd" clip-rule="evenodd" d="M63.2129 62.3311L63.1793 77.3788L63.1458 85.7387V90.3868L70.4899 94.2992L87.0896 103.127L88.3639 74.2355L63.2129 62.3311Z" fill="#2D8A44"/>
<path fill-rule="evenodd" clip-rule="evenodd" d="M72.6696 57.0145L81.221 52.2661L81.5563 41.1976L59.6917 32.1689L59.7253 39.2581L72.8709 44.9094L72.6696 57.0145Z" fill="#141A20"/>
<path fill-rule="evenodd" clip-rule="evenodd" d="M115.259 84.2339L108.552 81.0906L107.948 89.1495L107.512 89.4171L114.487 92.8279L132.831 80.2212L125.889 77.1113L115.259 84.2339Z" fill="#484848"/>
<path fill-rule="evenodd" clip-rule="evenodd" d="M107.512 89.4174L107.948 89.1499L108.552 81.091L110.128 60.8936L88.3639 74.2359L87.0896 103.128L100.269 94.2996L107.512 89.4174Z" fill="#66EC66"/>
<path fill-rule="evenodd" clip-rule="evenodd" d="M134.608 65.0068L133.803 71.795L132.361 72.7648L139.303 75.7409L155.735 64.4383L148.86 61.6963L140.376 67.4144L134.608 65.0068Z" fill="#3ED700"/>
<path fill-rule="evenodd" clip-rule="evenodd" d="M134.608 65.006L140.376 67.4137L143.83 40.2274L118.981 31.1318L118.444 37.3516L137.056 44.4073L134.608 65.006Z" fill="#242424"/>
<path fill-rule="evenodd" clip-rule="evenodd" d="M155.735 64.4375L139.303 75.74L136.184 100.084L145.507 93.162L152.113 88.3133L155.735 64.4375Z" fill="#2182AC"/>
<path fill-rule="evenodd" clip-rule="evenodd" d="M118.444 37.3516L118.981 31.1319L124.313 28.1558L125.319 17.7227L107.881 27.0857L107.11 37.7864L112.14 34.9774L118.444 37.3516Z" fill="#2182AC"/>
<path fill-rule="evenodd" clip-rule="evenodd" d="M85.8152 25.0465L86.05 19.0942L91.4491 16.4191L91.9185 6.4541L74.3464 14.814L74.1452 25.013L79.1754 22.5051L85.8152 25.0465Z" fill="#FFFF00"/>
<path fill-rule="evenodd" clip-rule="evenodd" d="M79.1754 22.5049L74.1452 25.0128L67.3712 28.3568L59.6917 32.1689L81.5563 41.1976L101.006 30.7644L85.8152 25.0463L79.1754 22.5049Z" fill="#484848"/>
<path fill-rule="evenodd" clip-rule="evenodd" d="M59.6917 32.1688L67.3712 28.3567L67.4718 18.0908L48.0217 27.3536L48.2229 37.0176L51.1404 35.5797L59.7253 39.258L59.6917 32.1688Z" fill="#5BE85B"/>
<path fill-rule="evenodd" clip-rule="evenodd" d="M59.7253 39.2584L51.1404 35.5801L48.2229 37.018L40.7111 40.7632L29.4435 46.3142L51.0733 56.5801L72.8709 44.9097L59.7253 39.2584Z" fill="#00C7CE"/>
<path fill-rule="evenodd" clip-rule="evenodd" d="M40.7111 40.7629L48.2229 37.0176L48.0217 27.3536L28.974 19.4619L29.3093 26.2167L40.4093 30.9985L40.7111 40.7629Z" fill="#348334"/>
<path fill-rule="evenodd" clip-rule="evenodd" d="M29.4435 46.3133L40.7111 40.7624L40.4093 30.998L18.7794 41.264L20.5568 67.7146L30.2818 62.5984L29.4435 46.3133Z" fill="#2182AC"/>
<path fill-rule="evenodd" clip-rule="evenodd" d="M29.4435 46.3135L30.2818 62.5985L30.6842 70.6574L30.7849 73.1654L38.5649 77.2784L51.5428 84.2004L51.0733 56.5794L29.4435 46.3135Z" fill="#006262"/>
<path fill-rule="evenodd" clip-rule="evenodd" d="M30.6842 70.6577L30.2818 62.5988L20.5568 67.715L10.3958 62.2979L3.15226 65.9762L21.0933 75.8408L30.6842 70.6577Z" fill="#202428"/>
<path fill-rule="evenodd" clip-rule="evenodd" d="M51.5428 84.2003L38.5649 77.2783L31.2208 81.4248L51.6769 92.6939L63.1458 85.7385L63.1793 77.3786L51.5428 84.2003Z" fill="#FCFF01"/>
<path fill-rule="evenodd" clip-rule="evenodd" d="M67.3712 28.3563L74.1452 25.0124L74.3464 14.8133L55.1981 7.79102L55.2316 13.4757L67.4718 18.0904L67.3712 28.3563Z" fill="#A5A500"/>
<path fill-rule="evenodd" clip-rule="evenodd" d="M132.831 80.2217L114.487 92.8284L112.274 117.741L123.542 109.414L129.712 104.833L129.947 104.699L130.785 97.4765L132.831 80.2217Z" fill="url(#paint3_linear_154_881)"/>
<path fill-rule="evenodd" clip-rule="evenodd" d="M129.712 104.833L123.542 109.414L129.041 112.223L127.331 126.702L132.428 129.444L135.245 107.575L129.712 104.833Z" fill="#006262"/>
<path fill-rule="evenodd" clip-rule="evenodd" d="M129.041 112.223L123.542 109.414L112.274 117.74L105.97 114.397L105.366 121.987L111.57 125.398L129.041 112.223Z" fill="#64FD64"/>
<path fill-rule="evenodd" clip-rule="evenodd" d="M135.245 107.574L132.428 129.444L147.72 117.238L150.973 95.6699L135.245 107.574Z" fill="#00AEAE"/>
<path fill-rule="evenodd" clip-rule="evenodd" d="M129.041 112.223L111.57 125.398L109.591 147.735L126.459 134.226L127.331 126.702L129.041 112.223Z" fill="#79F379"/>
<path fill-rule="evenodd" clip-rule="evenodd" d="M111.57 125.398L105.366 121.987L105.299 122.89L99.1621 127.438L104.695 130.615L103.656 144.191L109.591 147.736L111.57 125.398Z" fill="#348334"/>
<path fill-rule="evenodd" clip-rule="evenodd" d="M103.589 10.3994L91.4491 16.4185L86.05 19.0937L107.881 27.0857L125.319 17.7227L103.589 10.3994Z" fill="url(#paint4_linear_154_881)"/>
<path fill-rule="evenodd" clip-rule="evenodd" d="M136.352 21.4346L124.313 28.1559L118.981 31.132L143.83 40.2276L161 29.7276L136.352 21.4346Z" fill="#484848"/>
<path fill-rule="evenodd" clip-rule="evenodd" d="M5.33202 89.1167L11.8042 93.0291L22.6694 99.5498L21.0933 75.8412L3.15226 65.9766L5.33202 89.1167Z" fill="#3C3C3C"/>
<path fill-rule="evenodd" clip-rule="evenodd" d="M63.0117 139.543L62.9446 153.855L84.2391 168L85.2116 145.294L63.0117 131.551V139.543Z" fill="#A5A500"/>
<path fill-rule="evenodd" clip-rule="evenodd" d="M156.976 56.2785L161 29.7275L143.83 40.2275L140.376 67.4138L148.86 61.6957L156.976 56.2785Z" fill="#393938"/>
<path fill-rule="evenodd" clip-rule="evenodd" d="M150.973 95.6701L145.507 93.1621L136.184 100.084L130.785 97.4758L129.947 104.699L129.712 104.832L135.245 107.575L150.973 95.6701Z" fill="#00BDBD"/>
<path fill-rule="evenodd" clip-rule="evenodd" d="M114.487 92.8278L107.512 89.417L100.269 94.2992L107.277 97.8103L105.97 114.396L112.274 117.74L114.487 92.8278Z" fill="#242424"/>
<path fill-rule="evenodd" clip-rule="evenodd" d="M105.97 114.397L107.277 97.8105L86.6872 111.955L85.5805 137.47L99.1621 127.438L105.299 122.89L105.366 121.987L105.97 114.397Z" fill="#00AEAE"/>
<path fill-rule="evenodd" clip-rule="evenodd" d="M107.277 97.811L100.269 94.2998L87.0896 103.128L70.4899 94.2998L63.1123 98.9813L86.6872 111.956L107.277 97.811Z" fill="#00BDBD"/>
<path fill-rule="evenodd" clip-rule="evenodd" d="M63.1123 98.9813L70.4899 94.2998L63.1458 90.3873V85.7393L51.6769 92.6947L52.0794 117.306L63.0787 110.117L63.1123 98.9813Z" fill="#687A04"/>
<path fill-rule="evenodd" clip-rule="evenodd" d="M63.1123 98.9805L63.0787 110.116L63.0452 117.64V123.893L68.9138 127.437L85.5805 137.469L86.6871 111.955L63.1123 98.9805Z" fill="#006262"/>
<path fill-rule="evenodd" clip-rule="evenodd" d="M63.0452 117.641L63.0787 110.117L52.0794 117.306L38.6655 109.214L32.7969 112.859L52.2135 124.864L63.0452 117.641Z" fill="#141A20"/>
<path fill-rule="evenodd" clip-rule="evenodd" d="M38.6655 109.213L52.0794 117.305L51.677 92.6939L31.2208 81.4248L31.858 94.1653L32.2268 101.422L32.4281 105.434L38.6655 109.213Z" fill="#9AB100"/>
<path fill-rule="evenodd" clip-rule="evenodd" d="M31.8579 94.1652L31.2208 81.4247L38.5649 77.2782L30.7848 73.1652L30.6842 70.6572L21.0933 75.8403L22.6694 99.5489L31.8579 94.1652Z" fill="url(#paint5_linear_154_881)"/>
<path fill-rule="evenodd" clip-rule="evenodd" d="M48.0217 27.3538L67.4718 18.0911L55.2316 13.4764L48.3235 10.8682L28.974 19.4621L48.0217 27.3538Z" fill="url(#paint6_linear_154_881)"/>
<path fill-rule="evenodd" clip-rule="evenodd" d="M21.3951 22.8389L-3.8147e-06 32.3691L18.7794 41.264L40.4093 30.9981L29.3093 26.2163L21.3951 22.8389Z" fill="url(#paint7_linear_154_881)"/>
<path fill-rule="evenodd" clip-rule="evenodd" d="M63.0452 123.893V117.64L52.2135 124.863L52.5824 146.933L63.0117 139.543V131.55L68.9138 127.437L63.0452 123.893Z" fill="#222625"/>
<path fill-rule="evenodd" clip-rule="evenodd" d="M18.7794 41.264L-1.90735e-06 32.3691L2.4145 58.0507L10.3957 62.2975L20.5568 67.7147L18.7794 41.264Z" fill="#22AAAA"/>
<path fill-rule="evenodd" clip-rule="evenodd" d="M11.8042 93.0283L6.00271 96.2719L23.1389 106.872L32.2268 101.422L31.858 94.1653L22.6695 99.549L11.8042 93.0283Z" fill="#004A5E"/>
<path fill-rule="evenodd" clip-rule="evenodd" d="M32.2268 101.422L23.1389 106.873L24.5474 128.274L33.2664 122.689L32.7969 112.858L38.6655 109.213L32.428 105.435L32.2268 101.422Z" fill="#045163"/>
<path fill-rule="evenodd" clip-rule="evenodd" d="M32.7969 112.858L33.2664 122.69L33.87 134.494L52.5824 146.933L52.2135 124.863L32.7969 112.858Z" fill="#232A32"/>
<path fill-rule="evenodd" clip-rule="evenodd" d="M23.1389 106.873L6.00271 96.2725L7.98126 117.239L24.5474 128.274L23.1389 106.873Z" fill="#006D7E"/>
<path fill-rule="evenodd" clip-rule="evenodd" d="M99.1621 127.438L85.5805 137.469L68.9138 127.438L63.0117 131.551L85.2116 145.294L104.695 130.614L99.1621 127.438Z" fill="#FFFF00"/>
<path fill-rule="evenodd" clip-rule="evenodd" d="M55.1981 7.7914L74.3464 14.8137L91.9185 6.45382L72.7367 0L55.1981 7.7914Z" fill="url(#paint8_linear_154_881)"/>
<path fill-rule="evenodd" clip-rule="evenodd" d="M103.656 144.191L104.695 130.614L85.2116 145.294L84.2391 168L102.951 153.019L103.656 144.191Z" fill="url(#paint9_linear_154_881)"/>
<path fill-rule="evenodd" clip-rule="evenodd" d="M38.5649 77.2783L51.5428 84.2003L57.3443 80.7895L63.1458 83.7656V85.7385L51.6769 92.6939L31.2208 81.4248L38.4978 77.3118L38.5649 77.2783Z" fill="url(#paint10_linear_154_881)"/>
<path fill-rule="evenodd" clip-rule="evenodd" d="M83.3672 136.165L77.8005 140.713L63.0117 131.551L68.9138 127.438L83.3672 136.165Z" fill="url(#paint11_linear_154_881)"/>
<path fill-rule="evenodd" clip-rule="evenodd" d="M86.5195 102.827L79.4101 107.943L63.1123 98.9813L70.4899 94.2998L86.5195 102.827Z" fill="#005C5E"/>
<path fill-rule="evenodd" clip-rule="evenodd" d="M113.649 83.5317L108.015 88.2466L108.552 81.124L113.649 83.5317Z" fill="url(#paint12_linear_154_881)"/>
<path fill-rule="evenodd" clip-rule="evenodd" d="M139.102 66.8794L133.904 71.0594L134.608 65.0068L139.102 66.8794Z" fill="#005600"/>
<path fill-rule="evenodd" clip-rule="evenodd" d="M135.178 99.5832L130.047 103.797L130.785 97.4766L135.178 99.5832Z" fill="#0B4F52"/>
<path fill-rule="evenodd" clip-rule="evenodd" d="M110.296 116.704L105.467 120.717L105.97 114.396L110.296 116.704Z" fill="#23583E"/>
<path fill-rule="evenodd" clip-rule="evenodd" d="M51.4087 75.4061L63.1793 68.5176V77.379L57.3443 80.7899L51.5428 84.2007L51.4087 75.4061Z" fill="#005D62"/>
<path fill-rule="evenodd" clip-rule="evenodd" d="M19.9531 59.0541L29.8459 54.4395L30.2818 62.5987L20.5568 67.7149L19.9531 59.0541Z" fill="url(#paint13_linear_154_881)"/>
<defs>
<linearGradient id="paint0_linear_154_881" x1="116.699" y1="54.7546" x2="113.168" y2="35.9332" gradientUnits="userSpaceOnUse">
<stop offset="0.0181818" stop-color="#FFFF12"/>
<stop offset="1" stop-color="#F8F292"/>
</linearGradient>
<linearGradient id="paint1_linear_154_881" x1="100.549" y1="38.4232" x2="84.4648" y2="48.8979" gradientUnits="userSpaceOnUse">
<stop stop-color="#414042"/>
<stop offset="1" stop-color="#58595B"/>
</linearGradient>
<linearGradient id="paint2_linear_154_881" x1="86.6758" y1="75.3844" x2="86.6758" y2="48.9685" gradientUnits="userSpaceOnUse">
<stop stop-color="#80FF80"/>
<stop offset="1" stop-color="#E1FFDB"/>
</linearGradient>
<linearGradient id="paint3_linear_154_881" x1="137.713" y1="89.1557" x2="107.426" y2="108.88" gradientUnits="userSpaceOnUse">
<stop stop-color="#414042"/>
<stop offset="1" stop-color="#58595B"/>
</linearGradient>
<linearGradient id="paint4_linear_154_881" x1="103.998" y1="30.3901" x2="106.264" y2="14.219" gradientUnits="userSpaceOnUse">
<stop stop-color="#48B749"/>
<stop offset="1" stop-color="#73E600"/>
</linearGradient>
<linearGradient id="paint5_linear_154_881" x1="25.9009" y1="96.6442" x2="32.6267" y2="61.9447" gradientUnits="userSpaceOnUse">
<stop stop-color="#1E2225"/>
<stop offset="1" stop-color="#001525"/>
</linearGradient>
<linearGradient id="paint6_linear_154_881" x1="48.2262" y1="27.4742" x2="48.2262" y2="10.6373" gradientUnits="userSpaceOnUse">
<stop stop-color="#80FF80"/>
<stop offset="1" stop-color="#E1FFDB"/>
</linearGradient>
<linearGradient id="paint7_linear_154_881" x1="17.5693" y1="42.1809" x2="22.1736" y2="23.6614" gradientUnits="userSpaceOnUse">
<stop stop-color="#48B749"/>
<stop offset="1" stop-color="#73E600"/>
</linearGradient>
<linearGradient id="paint8_linear_154_881" x1="74.4945" y1="14.8203" x2="72.6762" y2="-0.0307715" gradientUnits="userSpaceOnUse">
<stop offset="0.0181818" stop-color="#FFFF12"/>
<stop offset="1" stop-color="#F8F292"/>
</linearGradient>
<linearGradient id="paint9_linear_154_881" x1="85.6561" y1="157.822" x2="102.652" y2="140.263" gradientUnits="userSpaceOnUse">
<stop offset="0.0181818" stop-color="#FFFF12"/>
<stop offset="1" stop-color="#F8F292"/>
</linearGradient>
<linearGradient id="paint10_linear_154_881" x1="34.5641" y1="81.0288" x2="65.6665" y2="89.9727" gradientUnits="userSpaceOnUse">
<stop stop-color="#517C29"/>
<stop offset="1" stop-color="#95B231"/>
</linearGradient>
<linearGradient id="paint11_linear_154_881" x1="64.9026" y1="131.66" x2="81.3928" y2="136.402" gradientUnits="userSpaceOnUse">
<stop stop-color="#517C29"/>
<stop offset="1" stop-color="#95B231"/>
</linearGradient>
<linearGradient id="paint12_linear_154_881" x1="109.105" y1="90.3559" x2="111.669" y2="80.0424" gradientUnits="userSpaceOnUse">
<stop stop-color="#1E2225"/>
<stop offset="1" stop-color="#001525"/>
</linearGradient>
<linearGradient id="paint13_linear_154_881" x1="31.1977" y1="59.4759" x2="18.9877" y2="62.7569" gradientUnits="userSpaceOnUse">
<stop stop-color="#1B6A2A"/>
<stop offset="1" stop-color="#43B649"/>
</linearGradient>
</defs>
</svg>
