<svg width="24" height="24" viewBox="0 0 24 24" fill="none" xmlns="http://www.w3.org/2000/svg">
<circle cx="12" cy="12" r="12" fill="black" fill-opacity="0.4"/>
<path d="M16.883 10.3125C16.883 10.3125 16.521 14.8025 16.311 16.6938C16.211 17.5972 15.653 18.1265 14.739 18.1432C12.9997 18.1745 11.2584 18.1765 9.5197 18.1398C8.64036 18.1218 8.0917 17.5858 7.9937 16.6985C7.78236 14.7905 7.42236 10.3125 7.42236 10.3125" stroke="white" stroke-width="1.5" stroke-linecap="round" stroke-linejoin="round"/>
<path d="M17.8053 8.15999H6.5" stroke="white" stroke-width="1.5" stroke-linecap="round" stroke-linejoin="round"/>
<path d="M15.6269 8.15998C15.1036 8.15998 14.6529 7.78998 14.5502 7.27732L14.3882 6.46665C14.2882 6.09265 13.9496 5.83398 13.5636 5.83398H10.7416C10.3556 5.83398 10.0169 6.09265 9.91689 6.46665L9.75489 7.27732C9.65222 7.78998 9.20156 8.15998 8.67822 8.15998" stroke="white" stroke-width="1.5" stroke-linecap="round" stroke-linejoin="round"/>
</svg>
