<svg width="181" height="184" viewBox="0 0 181 184" fill="none" xmlns="http://www.w3.org/2000/svg">
<path fill-rule="evenodd" clip-rule="evenodd" d="M90.5 48.9999C105.688 48.9999 118 36.6877 118 21.4999C118 15.6842 116.195 10.2902 113.114 5.84766C152.153 15.8903 181 51.326 181 93.4993C181 143.481 140.482 183.999 90.5 183.999C40.5182 183.999 0 143.481 0 93.4993C0 51.326 28.8471 15.8903 67.886 5.84766C64.8053 10.2902 63 15.6842 63 21.4999C63 36.6877 75.3122 48.9999 90.5 48.9999Z" fill="white" fill-opacity="0.1"/>
<circle cx="90.5" cy="21.5" r="21.5" fill="white"/>
<path d="M83.0011 29.23C81.8971 29.23 80.9388 29.0767 80.1261 28.77C79.3134 28.448 78.6388 28.011 78.1021 27.459C77.5808 26.907 77.1821 26.263 76.9061 25.527C76.6301 24.791 76.4691 24.0013 76.4231 23.158C76.4078 22.744 76.3924 22.2763 76.3771 21.755C76.3771 21.2183 76.3771 20.6817 76.3771 20.145C76.3924 19.593 76.4078 19.1023 76.4231 18.673C76.4691 17.8297 76.6301 17.0477 76.9061 16.327C77.1974 15.591 77.6114 14.9547 78.1481 14.418C78.7001 13.866 79.3748 13.4367 80.1721 13.13C80.9848 12.8233 81.9278 12.67 83.0011 12.67C84.0898 12.67 85.0328 12.8233 85.8301 13.13C86.6274 13.4367 87.2944 13.866 87.8311 14.418C88.3831 14.9547 88.8048 15.591 89.0961 16.327C89.3874 17.0477 89.5484 17.8297 89.5791 18.673C89.6098 19.1023 89.6251 19.593 89.6251 20.145C89.6404 20.6817 89.6404 21.2183 89.6251 21.755C89.6251 22.2763 89.6098 22.744 89.5791 23.158C89.5484 24.0013 89.3874 24.791 89.0961 25.527C88.8201 26.263 88.4138 26.907 87.8771 27.459C87.3558 28.011 86.6888 28.448 85.8761 28.77C85.0788 29.0767 84.1204 29.23 83.0011 29.23ZM83.0011 25.895C83.7984 25.895 84.3734 25.642 84.7261 25.136C85.0941 24.6147 85.2858 23.917 85.3011 23.043C85.3318 22.5983 85.3471 22.1307 85.3471 21.64C85.3624 21.1493 85.3624 20.6587 85.3471 20.168C85.3471 19.6773 85.3318 19.225 85.3011 18.811C85.2858 17.9677 85.0941 17.2853 84.7261 16.764C84.3734 16.2427 83.7984 15.9743 83.0011 15.959C82.2038 15.9743 81.6288 16.2427 81.2761 16.764C80.9234 17.2853 80.7318 17.9677 80.7011 18.811C80.6858 19.225 80.6704 19.6773 80.6551 20.168C80.6551 20.6587 80.6551 21.1493 80.6551 21.64C80.6704 22.1307 80.6858 22.5983 80.7011 23.043C80.7318 23.917 80.9311 24.6147 81.2991 25.136C81.6671 25.642 82.2344 25.895 83.0011 25.895ZM92.3779 29C92.2092 29 92.0636 28.9463 91.9409 28.839C91.8336 28.7317 91.7799 28.5937 91.7799 28.425V26.792C91.7799 26.6847 91.8106 26.5237 91.8719 26.309C91.9332 26.079 92.0942 25.8643 92.3549 25.665L94.7469 23.319C95.9736 22.3837 96.9779 21.594 97.7599 20.95C98.5572 20.2907 99.1476 19.708 99.5309 19.202C99.9142 18.696 100.106 18.2207 100.106 17.776C100.106 17.2547 99.9679 16.8253 99.6919 16.488C99.4312 16.1353 98.9712 15.959 98.3119 15.959C97.8672 15.959 97.4916 16.0587 97.1849 16.258C96.8936 16.442 96.6712 16.6873 96.5179 16.994C96.3646 17.3007 96.2572 17.615 96.1959 17.937C96.1346 18.1363 96.0272 18.2743 95.8739 18.351C95.7359 18.4277 95.5826 18.466 95.4139 18.466H92.5389C92.4009 18.466 92.2859 18.42 92.1939 18.328C92.1019 18.236 92.0559 18.121 92.0559 17.983C92.0712 17.247 92.2246 16.557 92.5159 15.913C92.8226 15.269 93.2442 14.7017 93.7809 14.211C94.3329 13.705 94.9846 13.314 95.7359 13.038C96.5026 12.762 97.3612 12.624 98.3119 12.624C99.6152 12.624 100.719 12.831 101.624 13.245C102.544 13.659 103.242 14.2417 103.717 14.993C104.192 15.729 104.43 16.5953 104.43 17.592C104.43 18.3433 104.261 19.0487 103.924 19.708C103.602 20.352 103.134 20.973 102.521 21.571C101.923 22.1537 101.21 22.7593 100.382 23.388L98.2659 25.527H104.177C104.346 25.527 104.484 25.5807 104.591 25.688C104.714 25.7953 104.775 25.9333 104.775 26.102V28.425C104.775 28.5937 104.714 28.7317 104.591 28.839C104.484 28.9463 104.346 29 104.177 29H92.3779Z" fill="black"/>
<path opacity="0.5" d="M98.2508 94.4697C96.6648 95.5989 94.7981 96.2663 92.857 96.3991H92.8442C90.9031 96.2663 89.0346 95.5989 87.4485 94.4697L65.4229 81.2546C62.6806 79.6157 65.3181 75.0702 67.9557 76.6558C77.1738 82.2061 79.1133 83.2763 88.3454 88.8136C90.5082 90.1088 91.695 90.7559 92.856 90.7559C94.0171 90.7559 95.191 90.1355 97.3539 88.8136C106.52 83.2633 108.512 82.1931 117.744 76.6558C120.382 75.0702 123.007 79.6156 120.276 81.2546L98.2508 94.4697Z" fill="white"/>
<path fill-rule="evenodd" clip-rule="evenodd" d="M73.4562 113.671C70.3043 117.042 67.1514 120.464 63.9997 123.86C62.1799 125.803 59.9509 126.028 58.1301 123.86C56.4024 121.918 54.7142 119.896 53.026 117.993C52.5964 117.559 52.3645 116.965 52.3875 116.354C52.4114 115.743 52.6865 115.169 53.1484 114.769C53.6093 114.368 54.2165 114.178 54.8237 114.243C55.4299 114.309 55.9829 114.623 56.3499 115.111C57.3389 116.208 58.3151 117.331 59.3307 118.482C61.2958 120.755 61.4273 120.002 63.2876 118.033C65.5958 115.548 67.9042 113.064 70.2113 110.606C72.5196 108.147 76.0671 110.856 73.4562 113.671ZM84.7325 116.579C84.7362 122.258 82.4868 127.706 78.4812 131.723C74.4746 135.741 69.0393 137.999 63.3704 138C57.7024 138.002 52.2662 135.746 48.2586 131.73C44.2501 127.714 41.9991 122.266 42 116.587C42.0018 110.908 44.2549 105.462 48.2643 101.448C52.2745 97.433 57.7116 95.18 63.3798 95.1838C69.0405 95.1903 74.4685 97.4468 78.4713 101.458C82.4742 105.468 84.7252 110.906 84.7325 116.579ZM80.2615 116.579C80.2615 112.088 78.4813 107.782 75.3118 104.606C72.1425 101.432 67.8433 99.6489 63.3622 99.6498C58.881 99.6516 54.5828 101.436 51.4151 104.613C48.2476 107.789 46.4692 112.097 46.4711 116.587C46.4738 121.078 48.2568 125.383 51.428 128.557C54.5983 131.73 58.8984 133.511 63.3796 133.507C67.8627 133.511 72.1637 131.729 75.3349 128.553C78.5062 125.379 80.2881 121.071 80.2881 116.579L80.2615 116.579ZM122.492 62H63.1417C59.2943 62 55.6042 63.5311 52.8828 66.2579C50.1623 68.9837 48.6334 72.6811 48.6334 76.5371V90.9283C48.6334 94.4036 53.9085 93.9815 53.9085 90.9283L53.9094 76.5102C53.9094 74.0564 54.8818 71.7039 56.6131 69.9689C58.3446 68.2341 60.6923 67.2598 63.1415 67.2598H122.492C124.941 67.2598 127.289 68.2342 129.02 69.9689C130.752 71.7038 131.724 74.0562 131.724 76.5102V118.957C131.724 121.41 130.752 123.763 129.02 125.498C127.289 127.233 124.941 128.207 122.492 128.207H88.5043C87.048 128.236 85.8906 129.443 85.9191 130.903C85.9485 132.362 87.1528 133.522 88.6101 133.494H122.492C126.339 133.494 130.029 131.962 132.751 129.236C135.471 126.51 137 122.813 137 118.957V76.5102C136.993 72.6599 135.461 68.9688 132.741 66.2487C130.021 63.5275 126.335 62 122.492 62Z" fill="white"/>
</svg>
