<svg width="16" height="19" viewBox="0 0 16 19" fill="none" xmlns="http://www.w3.org/2000/svg">
<g opacity="0.5">
<path d="M8.768 18.24C7.28 18.24 6.04 17.96 5.048 17.4C4.072 16.84 3.344 16.056 2.864 15.048C2.384 14.04 2.128 12.872 2.096 11.544V7.656C2.128 6.312 2.384 5.144 2.864 4.152C3.36 3.144 4.096 2.36 5.072 1.8C6.048 1.24 7.28 0.959999 8.768 0.959999C9.888 0.959999 10.864 1.104 11.696 1.392C12.544 1.68 13.24 2.064 13.784 2.544C14.344 3.008 14.76 3.536 15.032 4.128C15.32 4.704 15.48 5.288 15.512 5.88C15.528 6.024 15.48 6.144 15.368 6.24C15.272 6.336 15.152 6.384 15.008 6.384H13.688C13.544 6.384 13.424 6.344 13.328 6.264C13.232 6.184 13.152 6.04 13.088 5.832C12.816 4.808 12.304 4.08 11.552 3.648C10.816 3.216 9.888 3 8.768 3C7.44 3 6.4 3.376 5.648 4.128C4.912 4.88 4.536 6.096 4.52 7.776V11.424C4.536 13.104 4.912 14.32 5.648 15.072C6.4 15.824 7.44 16.2 8.768 16.2C9.888 16.2 10.816 15.984 11.552 15.552C12.304 15.12 12.816 14.392 13.088 13.368C13.152 13.16 13.232 13.016 13.328 12.936C13.424 12.856 13.544 12.816 13.688 12.816H15.008C15.152 12.816 15.272 12.864 15.368 12.96C15.48 13.056 15.528 13.176 15.512 13.32C15.48 13.912 15.32 14.504 15.032 15.096C14.76 15.672 14.344 16.2 13.784 16.68C13.24 17.144 12.544 17.52 11.696 17.808C10.864 18.096 9.888 18.24 8.768 18.24ZM0.584 12.288C0.424 12.288 0.288 12.24 0.176 12.144C0.08 12.032 0.032 11.896 0.032 11.736V10.896C0.032 10.736 0.08 10.608 0.176 10.512C0.288 10.4 0.424 10.344 0.584 10.344H9.296C9.456 10.344 9.584 10.4 9.68 10.512C9.792 10.608 9.848 10.736 9.848 10.896V11.736C9.848 11.896 9.792 12.032 9.68 12.144C9.584 12.24 9.456 12.288 9.296 12.288H0.584ZM0.584 8.88C0.424 8.88 0.288 8.832 0.176 8.736C0.08 8.624 0.032 8.488 0.032 8.328V7.488C0.032 7.328 0.08 7.2 0.176 7.104C0.288 6.992 0.424 6.936 0.584 6.936H9.296C9.456 6.936 9.584 6.992 9.68 7.104C9.792 7.2 9.848 7.328 9.848 7.488V8.328C9.848 8.488 9.792 8.624 9.68 8.736C9.584 8.832 9.456 8.88 9.296 8.88H0.584Z" fill="#141C24"/>
<path d="M-1 10.512H16.856V11.712H-1V10.512Z" fill="#141C24"/>
</g>
</svg>
