<svg width="12" height="13" viewBox="0 0 12 13" fill="none" xmlns="http://www.w3.org/2000/svg">
<path d="M6.688 12.16C5.67467 12.16 4.816 11.984 4.112 11.632C3.41867 11.2693 2.89067 10.752 2.528 10.08C2.176 9.39733 1.99467 8.58133 1.984 7.632V5.168C1.99467 4.208 2.176 3.392 2.528 2.72C2.89067 2.048 3.41867 1.536 4.112 1.184C4.816 0.821333 5.67467 0.639999 6.688 0.639999C7.424 0.639999 8.08 0.735999 8.656 0.927999C9.24267 1.10933 9.73867 1.36 10.144 1.68C10.5493 2 10.8587 2.368 11.072 2.784C11.296 3.2 11.4133 3.63733 11.424 4.096C11.4347 4.192 11.4027 4.272 11.328 4.336C11.264 4.4 11.184 4.432 11.088 4.432H9.568C9.45067 4.432 9.35467 4.40533 9.28 4.352C9.20533 4.29867 9.14133 4.19733 9.088 4.048C8.928 3.472 8.64 3.06667 8.224 2.832C7.81867 2.59733 7.30667 2.48 6.688 2.48C5.93067 2.48 5.33867 2.69333 4.912 3.12C4.496 3.54667 4.29333 4.256 4.304 5.248V7.536C4.29333 8.53867 4.496 9.25333 4.912 9.68C5.33867 10.1067 5.93067 10.32 6.688 10.32C7.30667 10.32 7.81867 10.2027 8.224 9.968C8.64 9.73333 8.928 9.328 9.088 8.752C9.14133 8.60267 9.20533 8.50133 9.28 8.448C9.35467 8.39467 9.45067 8.368 9.568 8.368H11.088C11.184 8.368 11.264 8.4 11.328 8.464C11.4027 8.528 11.4347 8.608 11.424 8.704C11.4133 9.16267 11.296 9.6 11.072 10.016C10.8587 10.432 10.5493 10.8 10.144 11.12C9.73867 11.44 9.24267 11.696 8.656 11.888C8.08 12.0693 7.424 12.16 6.688 12.16ZM0.992 7.232C0.885333 7.232 0.794667 7.19467 0.72 7.12C0.645333 7.04533 0.608 6.95467 0.608 6.848V5.936C0.608 5.82933 0.645333 5.73867 0.72 5.664C0.794667 5.58933 0.885333 5.552 0.992 5.552H7.008C7.12533 5.552 7.22133 5.58933 7.296 5.664C7.37067 5.73867 7.408 5.82933 7.408 5.936V6.848C7.408 6.95467 7.37067 7.04533 7.296 7.12C7.22133 7.19467 7.12533 7.232 7.008 7.232H0.992Z" fill="#2182AC"/>
</svg>
