<svg width="277" height="42" viewBox="0 0 277 42" fill="none" xmlns="http://www.w3.org/2000/svg">
<path d="M20.5 11L17.2544 17.5857L10 18.6357L15.25 23.7643L14.0088 31L20.5 27.5857L26.9912 31L25.75 23.7643L31 18.6429L23.7456 17.5857L20.5 11Z" fill="#FFB800"/>
<path d="M51.5 11L48.2544 17.5857L41 18.6357L46.25 23.7643L45.0088 31L51.5 27.5857L57.9912 31L56.75 23.7643L62 18.6429L54.7456 17.5857L51.5 11Z" fill="#FFB800"/>
<path d="M82.5 11L79.2544 17.5857L72 18.6357L77.25 23.7643L76.0088 31L82.5 27.5857L88.9912 31L87.75 23.7643L93 18.6429L85.7456 17.5857L82.5 11Z" fill="#FFB800"/>
<path d="M113.5 11L110.254 17.5857L103 18.6357L108.25 23.7643L107.009 31L113.5 27.5857L119.991 31L118.75 23.7643L124 18.6429L116.746 17.5857L113.5 11Z" fill="#FFB800"/>
<path d="M144.5 11L141.254 17.5857L134 18.6357L139.25 23.7643L138.009 31L144.5 27.5857L150.991 31L149.75 23.7643L155 18.6429L147.746 17.5857L144.5 11Z" fill="#FFB800"/>
<line opacity="0.5" x1="165.5" y1="10" x2="165.5" y2="32" stroke="white"/>
<path opacity="0.5" d="M177.256 26.128C176.925 26.128 176.669 26.0373 176.488 25.856C176.317 25.664 176.232 25.4027 176.232 25.072V15.76C176.232 15.4187 176.323 15.1627 176.504 14.992C176.685 14.8107 176.941 14.72 177.272 14.72H181.128C182.365 14.72 183.32 15.0187 183.992 15.616C184.664 16.2027 185 17.0293 185 18.096C185 18.7893 184.845 19.3867 184.536 19.888C184.237 20.3893 183.8 20.7733 183.224 21.04C182.648 21.3067 181.949 21.44 181.128 21.44L181.272 21.2H181.8C182.237 21.2 182.616 21.3067 182.936 21.52C183.267 21.7333 183.555 22.0693 183.8 22.528L185 24.752C185.128 24.976 185.187 25.1947 185.176 25.408C185.165 25.6213 185.085 25.7973 184.936 25.936C184.787 26.064 184.568 26.128 184.28 26.128C183.992 26.128 183.757 26.0693 183.576 25.952C183.395 25.824 183.235 25.632 183.096 25.376L181.48 22.4C181.288 22.0373 181.059 21.7973 180.792 21.68C180.536 21.552 180.205 21.488 179.8 21.488H178.28V25.072C178.28 25.4027 178.195 25.664 178.024 25.856C177.853 26.0373 177.597 26.128 177.256 26.128ZM178.28 19.968H180.776C181.512 19.968 182.067 19.8187 182.44 19.52C182.824 19.2107 183.016 18.752 183.016 18.144C183.016 17.5467 182.824 17.0987 182.44 16.8C182.067 16.4907 181.512 16.336 180.776 16.336H178.28V19.968ZM189.507 26.16C188.941 26.16 188.435 26.0533 187.987 25.84C187.549 25.616 187.203 25.3173 186.947 24.944C186.701 24.5707 186.579 24.1493 186.579 23.68C186.579 23.104 186.728 22.6507 187.027 22.32C187.325 21.9787 187.811 21.7333 188.483 21.584C189.155 21.4347 190.056 21.36 191.187 21.36H191.987V22.512H191.203C190.541 22.512 190.013 22.544 189.619 22.608C189.224 22.672 188.941 22.784 188.771 22.944C188.611 23.0933 188.531 23.3067 188.531 23.584C188.531 23.936 188.653 24.224 188.899 24.448C189.144 24.672 189.485 24.784 189.923 24.784C190.275 24.784 190.584 24.704 190.851 24.544C191.128 24.3733 191.347 24.144 191.507 23.856C191.667 23.568 191.747 23.2373 191.747 22.864V21.024C191.747 20.4907 191.629 20.1067 191.395 19.872C191.16 19.6373 190.765 19.52 190.211 19.52C189.901 19.52 189.565 19.5573 189.203 19.632C188.851 19.7067 188.477 19.8347 188.083 20.016C187.88 20.112 187.699 20.1387 187.539 20.096C187.389 20.0533 187.272 19.968 187.187 19.84C187.101 19.7013 187.059 19.552 187.059 19.392C187.059 19.232 187.101 19.0773 187.187 18.928C187.272 18.768 187.416 18.6507 187.619 18.576C188.109 18.3733 188.579 18.2293 189.027 18.144C189.485 18.0587 189.901 18.016 190.275 18.016C191.043 18.016 191.672 18.1333 192.163 18.368C192.664 18.6027 193.037 18.96 193.283 19.44C193.528 19.9093 193.651 20.5173 193.651 21.264V25.104C193.651 25.4347 193.571 25.6907 193.411 25.872C193.251 26.0427 193.021 26.128 192.723 26.128C192.424 26.128 192.189 26.0427 192.019 25.872C191.859 25.6907 191.779 25.4347 191.779 25.104V24.336H191.907C191.832 24.7093 191.683 25.0347 191.459 25.312C191.245 25.5787 190.973 25.7867 190.643 25.936C190.312 26.0853 189.933 26.16 189.507 26.16ZM199.265 26.16C198.571 26.16 197.99 26.0427 197.521 25.808C197.062 25.5733 196.721 25.232 196.497 24.784C196.273 24.3253 196.161 23.76 196.161 23.088V19.68H195.329C195.073 19.68 194.875 19.616 194.737 19.488C194.598 19.3493 194.529 19.1627 194.529 18.928C194.529 18.6827 194.598 18.496 194.737 18.368C194.875 18.24 195.073 18.176 195.329 18.176H196.161V16.72C196.161 16.3893 196.246 16.1387 196.417 15.968C196.598 15.7973 196.849 15.712 197.169 15.712C197.489 15.712 197.734 15.7973 197.905 15.968C198.075 16.1387 198.161 16.3893 198.161 16.72V18.176H199.857C200.113 18.176 200.31 18.24 200.449 18.368C200.587 18.496 200.657 18.6827 200.657 18.928C200.657 19.1627 200.587 19.3493 200.449 19.488C200.31 19.616 200.113 19.68 199.857 19.68H198.161V22.976C198.161 23.488 198.273 23.872 198.497 24.128C198.721 24.384 199.083 24.512 199.585 24.512C199.766 24.512 199.926 24.496 200.065 24.464C200.203 24.432 200.326 24.4107 200.433 24.4C200.561 24.3893 200.667 24.432 200.753 24.528C200.838 24.6133 200.881 24.7947 200.881 25.072C200.881 25.2853 200.843 25.4773 200.769 25.648C200.705 25.808 200.582 25.92 200.401 25.984C200.262 26.0267 200.081 26.064 199.857 26.096C199.633 26.1387 199.435 26.16 199.265 26.16ZM205.599 26.16C204.714 26.16 203.951 25.9947 203.311 25.664C202.671 25.3333 202.175 24.864 201.823 24.256C201.482 23.648 201.311 22.928 201.311 22.096C201.311 21.2853 201.476 20.576 201.807 19.968C202.148 19.36 202.612 18.8853 203.199 18.544C203.796 18.192 204.474 18.016 205.231 18.016C205.786 18.016 206.282 18.1067 206.719 18.288C207.167 18.4693 207.546 18.7307 207.855 19.072C208.175 19.4133 208.415 19.8293 208.575 20.32C208.746 20.8 208.831 21.344 208.831 21.952C208.831 22.144 208.762 22.2933 208.623 22.4C208.495 22.496 208.308 22.544 208.063 22.544H202.927V21.392H207.423L207.167 21.632C207.167 21.1413 207.092 20.7307 206.943 20.4C206.804 20.0693 206.596 19.8187 206.319 19.648C206.052 19.4667 205.716 19.376 205.311 19.376C204.863 19.376 204.479 19.4827 204.159 19.696C203.85 19.8987 203.61 20.192 203.439 20.576C203.279 20.9493 203.199 21.3973 203.199 21.92V22.032C203.199 22.9067 203.402 23.5627 203.807 24C204.223 24.4267 204.831 24.64 205.631 24.64C205.908 24.64 206.218 24.608 206.559 24.544C206.911 24.4693 207.242 24.3467 207.551 24.176C207.775 24.048 207.972 23.9947 208.143 24.016C208.314 24.0267 208.447 24.0853 208.543 24.192C208.65 24.2987 208.714 24.432 208.735 24.592C208.756 24.7413 208.724 24.896 208.639 25.056C208.564 25.216 208.431 25.3547 208.239 25.472C207.866 25.7067 207.434 25.8827 206.943 26C206.463 26.1067 206.015 26.16 205.599 26.16ZM213.423 26.16C212.74 26.16 212.138 25.9947 211.615 25.664C211.103 25.3333 210.703 24.864 210.415 24.256C210.127 23.6373 209.983 22.912 209.983 22.08C209.983 21.2373 210.127 20.5173 210.415 19.92C210.703 19.312 211.103 18.8427 211.615 18.512C212.138 18.1813 212.74 18.016 213.423 18.016C214.074 18.016 214.639 18.176 215.119 18.496C215.61 18.816 215.94 19.2373 216.111 19.76H215.935V15.6C215.935 15.2693 216.02 15.0187 216.191 14.848C216.362 14.6773 216.607 14.592 216.927 14.592C217.247 14.592 217.492 14.6773 217.663 14.848C217.844 15.0187 217.935 15.2693 217.935 15.6V25.104C217.935 25.4347 217.85 25.6907 217.679 25.872C217.508 26.0427 217.263 26.128 216.943 26.128C216.623 26.128 216.378 26.0427 216.207 25.872C216.036 25.6907 215.951 25.4347 215.951 25.104V23.856L216.127 24.336C215.967 24.8907 215.642 25.3333 215.151 25.664C214.66 25.9947 214.084 26.16 213.423 26.16ZM213.983 24.64C214.378 24.64 214.724 24.544 215.023 24.352C215.322 24.16 215.551 23.8773 215.711 23.504C215.882 23.12 215.967 22.6453 215.967 22.08C215.967 21.2267 215.786 20.592 215.423 20.176C215.06 19.7493 214.58 19.536 213.983 19.536C213.588 19.536 213.242 19.632 212.943 19.824C212.644 20.0053 212.41 20.288 212.239 20.672C212.079 21.0453 211.999 21.5147 211.999 22.08C211.999 22.9227 212.18 23.5627 212.543 24C212.906 24.4267 213.386 24.64 213.983 24.64ZM228.209 26.16C227.643 26.16 227.067 26.0853 226.481 25.936C225.894 25.7867 225.355 25.5573 224.865 25.248C224.662 25.12 224.523 24.9707 224.449 24.8C224.385 24.6187 224.369 24.4427 224.401 24.272C224.443 24.0907 224.523 23.9413 224.641 23.824C224.769 23.696 224.918 23.6213 225.089 23.6C225.27 23.5787 225.467 23.6267 225.681 23.744C226.075 23.968 226.475 24.1387 226.881 24.256C227.286 24.3733 227.718 24.432 228.177 24.432C228.625 24.432 229.009 24.352 229.329 24.192C229.649 24.032 229.894 23.808 230.065 23.52C230.235 23.232 230.321 22.896 230.321 22.512C230.321 21.9147 230.139 21.4347 229.777 21.072C229.414 20.6987 228.918 20.512 228.289 20.512C227.947 20.512 227.617 20.5707 227.297 20.688C226.977 20.7947 226.662 20.9867 226.353 21.264C226.257 21.3493 226.134 21.4347 225.985 21.52C225.835 21.5947 225.675 21.632 225.505 21.632C225.238 21.632 225.035 21.5627 224.897 21.424C224.758 21.2853 224.689 21.0933 224.689 20.848V15.616C224.689 15.328 224.763 15.1093 224.913 14.96C225.073 14.8 225.297 14.72 225.585 14.72H230.849C231.137 14.72 231.355 14.7947 231.505 14.944C231.665 15.0827 231.745 15.2907 231.745 15.568C231.745 15.8347 231.665 16.0427 231.505 16.192C231.355 16.3413 231.137 16.416 230.849 16.416H226.689V20H226.161C226.438 19.6267 226.806 19.3387 227.265 19.136C227.723 18.9333 228.225 18.832 228.769 18.832C229.483 18.832 230.102 18.9867 230.625 19.296C231.158 19.5947 231.569 20.016 231.857 20.56C232.155 21.0933 232.305 21.7173 232.305 22.432C232.305 23.168 232.139 23.8187 231.809 24.384C231.478 24.9387 231.003 25.376 230.385 25.696C229.777 26.0053 229.051 26.16 228.209 26.16ZM241.154 26.16C240.695 26.16 240.21 26.112 239.698 26.016C239.186 25.92 238.727 25.7547 238.322 25.52C238.151 25.4133 238.029 25.2907 237.954 25.152C237.89 25.0027 237.863 24.8587 237.874 24.72C237.895 24.5707 237.949 24.4427 238.034 24.336C238.13 24.2293 238.247 24.16 238.386 24.128C238.535 24.096 238.695 24.1227 238.866 24.208C239.293 24.4107 239.693 24.5547 240.066 24.64C240.439 24.7147 240.807 24.752 241.17 24.752C241.682 24.752 242.061 24.6667 242.306 24.496C242.562 24.3147 242.69 24.08 242.69 23.792C242.69 23.5467 242.605 23.36 242.434 23.232C242.274 23.0933 242.029 22.992 241.698 22.928L240.098 22.624C239.437 22.496 238.93 22.256 238.578 21.904C238.237 21.5413 238.066 21.0773 238.066 20.512C238.066 20 238.205 19.5573 238.482 19.184C238.77 18.8107 239.165 18.5227 239.666 18.32C240.167 18.1173 240.743 18.016 241.394 18.016C241.863 18.016 242.301 18.0693 242.706 18.176C243.122 18.272 243.522 18.4267 243.906 18.64C244.066 18.7253 244.173 18.8373 244.226 18.976C244.29 19.1147 244.306 19.2587 244.274 19.408C244.242 19.5467 244.178 19.6747 244.082 19.792C243.986 19.8987 243.863 19.968 243.714 20C243.575 20.0213 243.415 19.9893 243.234 19.904C242.903 19.7333 242.583 19.6107 242.274 19.536C241.975 19.4613 241.687 19.424 241.41 19.424C240.887 19.424 240.498 19.5147 240.242 19.696C239.997 19.8773 239.874 20.1173 239.874 20.416C239.874 20.64 239.949 20.8267 240.098 20.976C240.247 21.1253 240.477 21.2267 240.786 21.28L242.386 21.584C243.079 21.712 243.602 21.9467 243.954 22.288C244.317 22.6293 244.498 23.088 244.498 23.664C244.498 24.4427 244.194 25.056 243.586 25.504C242.978 25.9413 242.167 26.16 241.154 26.16ZM249.608 26.16C248.915 26.16 248.334 26.0427 247.864 25.808C247.406 25.5733 247.064 25.232 246.84 24.784C246.616 24.3253 246.504 23.76 246.504 23.088V19.68H245.672C245.416 19.68 245.219 19.616 245.08 19.488C244.942 19.3493 244.872 19.1627 244.872 18.928C244.872 18.6827 244.942 18.496 245.08 18.368C245.219 18.24 245.416 18.176 245.672 18.176H246.504V16.72C246.504 16.3893 246.59 16.1387 246.76 15.968C246.942 15.7973 247.192 15.712 247.512 15.712C247.832 15.712 248.078 15.7973 248.248 15.968C248.419 16.1387 248.504 16.3893 248.504 16.72V18.176H250.2C250.456 18.176 250.654 18.24 250.792 18.368C250.931 18.496 251 18.6827 251 18.928C251 19.1627 250.931 19.3493 250.792 19.488C250.654 19.616 250.456 19.68 250.2 19.68H248.504V22.976C248.504 23.488 248.616 23.872 248.84 24.128C249.064 24.384 249.427 24.512 249.928 24.512C250.11 24.512 250.27 24.496 250.408 24.464C250.547 24.432 250.67 24.4107 250.776 24.4C250.904 24.3893 251.011 24.432 251.096 24.528C251.182 24.6133 251.224 24.7947 251.224 25.072C251.224 25.2853 251.187 25.4773 251.112 25.648C251.048 25.808 250.926 25.92 250.744 25.984C250.606 26.0267 250.424 26.064 250.2 26.096C249.976 26.1387 249.779 26.16 249.608 26.16ZM254.741 26.16C254.176 26.16 253.669 26.0533 253.221 25.84C252.784 25.616 252.437 25.3173 252.181 24.944C251.936 24.5707 251.813 24.1493 251.813 23.68C251.813 23.104 251.962 22.6507 252.261 22.32C252.56 21.9787 253.045 21.7333 253.717 21.584C254.389 21.4347 255.29 21.36 256.421 21.36H257.221V22.512H256.437C255.776 22.512 255.248 22.544 254.853 22.608C254.458 22.672 254.176 22.784 254.005 22.944C253.845 23.0933 253.765 23.3067 253.765 23.584C253.765 23.936 253.888 24.224 254.133 24.448C254.378 24.672 254.72 24.784 255.157 24.784C255.509 24.784 255.818 24.704 256.085 24.544C256.362 24.3733 256.581 24.144 256.741 23.856C256.901 23.568 256.981 23.2373 256.981 22.864V21.024C256.981 20.4907 256.864 20.1067 256.629 19.872C256.394 19.6373 256 19.52 255.445 19.52C255.136 19.52 254.8 19.5573 254.437 19.632C254.085 19.7067 253.712 19.8347 253.317 20.016C253.114 20.112 252.933 20.1387 252.773 20.096C252.624 20.0533 252.506 19.968 252.421 19.84C252.336 19.7013 252.293 19.552 252.293 19.392C252.293 19.232 252.336 19.0773 252.421 18.928C252.506 18.768 252.65 18.6507 252.853 18.576C253.344 18.3733 253.813 18.2293 254.261 18.144C254.72 18.0587 255.136 18.016 255.509 18.016C256.277 18.016 256.906 18.1333 257.397 18.368C257.898 18.6027 258.272 18.96 258.517 19.44C258.762 19.9093 258.885 20.5173 258.885 21.264V25.104C258.885 25.4347 258.805 25.6907 258.645 25.872C258.485 26.0427 258.256 26.128 257.957 26.128C257.658 26.128 257.424 26.0427 257.253 25.872C257.093 25.6907 257.013 25.4347 257.013 25.104V24.336H257.141C257.066 24.7093 256.917 25.0347 256.693 25.312C256.48 25.5787 256.208 25.7867 255.877 25.936C255.546 26.0853 255.168 26.16 254.741 26.16ZM261.939 26.128C261.608 26.128 261.352 26.0427 261.171 25.872C261 25.6907 260.915 25.4347 260.915 25.104V19.056C260.915 18.7253 261 18.4747 261.171 18.304C261.342 18.1333 261.582 18.048 261.891 18.048C262.2 18.048 262.44 18.1333 262.611 18.304C262.782 18.4747 262.867 18.7253 262.867 19.056V20.064H262.707C262.856 19.424 263.15 18.9387 263.587 18.608C264.024 18.2773 264.606 18.08 265.331 18.016C265.555 17.9947 265.731 18.0533 265.859 18.192C265.998 18.32 266.078 18.5227 266.099 18.8C266.12 19.0667 266.056 19.2853 265.907 19.456C265.768 19.616 265.555 19.712 265.267 19.744L264.915 19.776C264.264 19.84 263.774 20.0427 263.443 20.384C263.112 20.7147 262.947 21.184 262.947 21.792V25.104C262.947 25.4347 262.862 25.6907 262.691 25.872C262.52 26.0427 262.27 26.128 261.939 26.128Z" fill="white"/>
</svg>
