<svg width="181" height="184" viewBox="0 0 181 184" fill="none" xmlns="http://www.w3.org/2000/svg">
<path fill-rule="evenodd" clip-rule="evenodd" d="M90.5 48.9999C105.688 48.9999 118 36.6877 118 21.4999C118 15.6842 116.195 10.2902 113.114 5.84766C152.153 15.8903 181 51.326 181 93.4993C181 143.481 140.482 183.999 90.5 183.999C40.5182 183.999 0 143.481 0 93.4993C0 51.326 28.8471 15.8903 67.886 5.84766C64.8053 10.2902 63 15.6842 63 21.4999C63 36.6877 75.3122 48.9999 90.5 48.9999Z" fill="white" fill-opacity="0.1"/>
<circle cx="90.5" cy="21.5" r="21.5" fill="white"/>
<path d="M82.9 29.23C81.796 29.23 80.8377 29.0767 80.025 28.77C79.2124 28.448 78.5377 28.011 78.001 27.459C77.4797 26.907 77.081 26.263 76.805 25.527C76.529 24.791 76.368 24.0013 76.322 23.158C76.3067 22.744 76.2914 22.2763 76.276 21.755C76.276 21.2183 76.276 20.6817 76.276 20.145C76.2914 19.593 76.3067 19.1023 76.322 18.673C76.368 17.8297 76.529 17.0477 76.805 16.327C77.0964 15.591 77.5104 14.9547 78.047 14.418C78.599 13.866 79.2737 13.4367 80.071 13.13C80.8837 12.8233 81.8267 12.67 82.9 12.67C83.9887 12.67 84.9317 12.8233 85.729 13.13C86.5264 13.4367 87.1934 13.866 87.73 14.418C88.282 14.9547 88.7037 15.591 88.995 16.327C89.2864 17.0477 89.4474 17.8297 89.478 18.673C89.5087 19.1023 89.524 19.593 89.524 20.145C89.5394 20.6817 89.5394 21.2183 89.524 21.755C89.524 22.2763 89.5087 22.744 89.478 23.158C89.4474 24.0013 89.2864 24.791 88.995 25.527C88.719 26.263 88.3127 26.907 87.776 27.459C87.2547 28.011 86.5877 28.448 85.775 28.77C84.9777 29.0767 84.0194 29.23 82.9 29.23ZM82.9 25.895C83.6974 25.895 84.2724 25.642 84.625 25.136C84.993 24.6147 85.1847 23.917 85.2 23.043C85.2307 22.5983 85.246 22.1307 85.246 21.64C85.2614 21.1493 85.2614 20.6587 85.246 20.168C85.246 19.6773 85.2307 19.225 85.2 18.811C85.1847 17.9677 84.993 17.2853 84.625 16.764C84.2724 16.2427 83.6974 15.9743 82.9 15.959C82.1027 15.9743 81.5277 16.2427 81.175 16.764C80.8224 17.2853 80.6307 17.9677 80.6 18.811C80.5847 19.225 80.5694 19.6773 80.554 20.168C80.554 20.6587 80.554 21.1493 80.554 21.64C80.5694 22.1307 80.5847 22.5983 80.6 23.043C80.6307 23.917 80.83 24.6147 81.198 25.136C81.566 25.642 82.1334 25.895 82.9 25.895ZM98.2108 29.23C97.0148 29.23 95.9952 29.092 95.1518 28.816C94.3085 28.5247 93.6185 28.1567 93.0818 27.712C92.5452 27.252 92.1465 26.769 91.8858 26.263C91.6252 25.7417 91.4872 25.2433 91.4718 24.768C91.4718 24.63 91.5178 24.515 91.6098 24.423C91.7172 24.331 91.8398 24.285 91.9778 24.285H94.9678C95.1518 24.285 95.2975 24.3233 95.4048 24.4C95.5122 24.4613 95.6118 24.5687 95.7038 24.722C95.8265 25.0133 96.0028 25.251 96.2328 25.435C96.4782 25.619 96.7695 25.7493 97.1068 25.826C97.4442 25.8873 97.8122 25.918 98.2108 25.918C98.9928 25.918 99.5985 25.7417 100.028 25.389C100.473 25.021 100.695 24.5227 100.695 23.894C100.695 23.2347 100.488 22.767 100.074 22.491C99.6598 22.1997 99.0695 22.054 98.3028 22.054H95.7498C95.5812 22.054 95.4432 22.0003 95.3358 21.893C95.2285 21.7857 95.1748 21.6477 95.1748 21.479V20.191C95.1748 20.007 95.2132 19.846 95.2898 19.708C95.3665 19.57 95.4508 19.4703 95.5428 19.409L99.3148 16.212H92.9208C92.7675 16.212 92.6295 16.1583 92.5068 16.051C92.3995 15.9437 92.3458 15.8057 92.3458 15.637V13.475C92.3458 13.3063 92.3995 13.1683 92.5068 13.061C92.6295 12.9537 92.7675 12.9 92.9208 12.9H103.501C103.67 12.9 103.808 12.9537 103.915 13.061C104.038 13.1683 104.099 13.3063 104.099 13.475V15.43C104.099 15.5987 104.061 15.752 103.984 15.89C103.907 16.0127 103.823 16.1123 103.731 16.189L100.235 19.432L100.396 19.478C101.27 19.5853 102.052 19.823 102.742 20.191C103.432 20.5437 103.976 21.042 104.375 21.686C104.774 22.33 104.973 23.1503 104.973 24.147C104.973 25.1897 104.674 26.0943 104.076 26.861C103.493 27.6123 102.696 28.195 101.684 28.609C100.672 29.023 99.5142 29.23 98.2108 29.23Z" fill="black"/>
<path d="M67.4572 130.632C66.7312 130.098 66.5765 129.076 67.1109 128.351C67.6454 127.625 68.6668 127.47 69.3923 128.005C73.8275 131.272 78.9911 133.443 84.5574 134.317C103.474 137.288 121.218 124.36 124.188 105.444C125.063 99.8727 124.577 94.2872 122.823 89.0598C122.537 88.2054 122.996 87.2805 123.851 86.9937C124.705 86.7068 125.63 87.1671 125.917 88.0215C127.837 93.7424 128.369 99.8575 127.412 105.949C124.162 126.646 104.748 140.79 84.0509 137.54C77.9642 136.584 72.3111 134.207 67.4561 130.631L67.4572 130.632ZM110.867 68.4171C111.618 68.9147 111.824 69.9269 111.326 70.6782C110.829 71.4296 109.817 71.6353 109.065 71.1377C104.955 68.4162 100.295 66.5956 95.3143 65.8135C76.3964 62.8428 58.654 75.7692 55.6832 94.6871C54.8998 99.6758 55.2065 104.678 56.543 109.431C56.787 110.298 56.2815 111.199 55.4137 111.443C54.5465 111.687 53.6454 111.182 53.4014 110.314C51.939 105.112 51.6025 99.6356 52.4591 94.1811C55.7094 73.4829 75.1234 59.34 95.8201 62.5901C101.266 63.4452 106.368 65.4388 110.867 68.4178L110.867 68.4171Z" fill="white"/>
<path d="M93.921 105.506L124.822 73.9359L85.3001 93.6733L54.3989 125.243L93.921 105.506ZM51.5129 130.333C50.5791 130.8 49.4531 130.623 48.7071 129.893C47.7415 128.947 47.725 127.398 48.6705 126.432L83.3516 91.0005L127.708 68.8487C128.917 68.2449 130.387 68.7354 130.991 69.9449C131.457 70.8782 131.28 72.0047 130.55 72.7501L95.8692 108.182L51.5129 130.333Z" fill="white"/>
<path d="M82.9179 93.4802L85.5555 91.5592L96.1238 106.065L93.4862 107.987L82.9179 93.4802Z" fill="white"/>
<path d="M83.176 129.972C83.3159 129.082 84.1504 128.474 85.0409 128.613C85.9313 128.753 86.5393 129.588 86.3995 130.478L85.5136 136.12C85.3738 137.01 84.5392 137.618 83.6488 137.478C82.7583 137.338 82.1503 136.504 82.2902 135.613L83.176 129.972Z" fill="white"/>
<path d="M93.5538 63.8848C93.6937 62.9943 94.5283 62.3857 95.4187 62.5256C96.3092 62.6654 96.9171 63.5005 96.7773 64.391L95.8914 70.0324C95.7516 70.9223 94.917 71.5308 94.0266 71.391C93.1361 71.2512 92.5282 70.4161 92.6679 69.5262L93.5538 63.8848Z" fill="white"/>
<path d="M60.3704 93.7709C61.2603 93.9107 61.8689 94.7453 61.729 95.6357C61.5893 96.5257 60.7541 97.1341 59.8642 96.9944L54.2222 96.1084C53.3323 95.9686 52.7239 95.1335 52.8636 94.2436C53.0034 93.3531 53.8385 92.7452 54.7284 92.8849L60.3704 93.7709Z" fill="white"/>
<path d="M125.651 104.022C126.542 104.162 127.15 104.996 127.01 105.887C126.87 106.777 126.035 107.385 125.145 107.245L119.504 106.359C118.613 106.22 118.005 105.384 118.145 104.495C118.285 103.604 119.119 102.996 120.01 103.136L125.651 104.022Z" fill="white"/>
<path d="M67.479 79.8303C68.1798 80.3966 68.2893 81.4235 67.7229 82.125C67.1566 82.8258 66.1296 82.9353 65.4282 82.3689L60.9859 78.7813C60.2845 78.2149 60.1751 77.1873 60.7414 76.4865C61.3077 75.7856 62.3352 75.6763 63.0361 76.2426L67.479 79.8303Z" fill="white"/>
<path d="M118.888 121.349C119.589 121.915 119.699 122.942 119.132 123.644C118.567 124.345 117.539 124.454 116.838 123.888L112.395 120.299C111.694 119.734 111.585 118.706 112.151 118.005C112.717 117.304 113.745 117.195 114.445 117.761L118.888 121.349Z" fill="white"/>
<path d="M80.6049 71.3132C80.929 72.1544 80.51 73.0984 79.6694 73.4227C78.8281 73.7468 77.8841 73.3278 77.5599 72.4872L75.5066 67.1584C75.1824 66.3177 75.6015 65.3732 76.4422 65.0489C77.2828 64.7247 78.2274 65.1438 78.5516 65.985L80.6049 71.3132Z" fill="white"/>
<path d="M104.367 132.974C104.692 133.814 104.273 134.759 103.432 135.082C102.591 135.407 101.647 134.988 101.322 134.147L99.2686 128.818C98.945 127.978 99.3635 127.033 100.205 126.709C101.045 126.385 101.99 126.804 102.314 127.645L104.367 132.974Z" fill="white"/>
</svg>
